<svg width="72" height="15" viewBox="0 0 72 15" fill="none" xmlns="http://www.w3.org/2000/svg">
<path d="M35.0427 3.92729C35.503 3.87988 36.0053 3.7417 36.4771 3.66811C38.0279 3.42614 39.7881 3.34315 41.0862 4.38111C41.7353 4.90007 42.2764 5.80334 42.3581 6.63353C42.3619 6.67434 42.3649 6.71529 42.3666 6.75627C42.6856 7.06699 42.5839 8.04878 42.4967 8.46579C42.4899 8.49819 42.3947 8.59202 42.3649 8.67391C42.3104 9.61532 42.011 10.3071 41.307 10.9604C41.0173 11.2294 40.3597 11.6125 39.9641 11.6011C39.8778 11.6287 39.8046 11.6371 39.754 11.7176C38.4916 12.054 37.5885 12.0635 36.3112 11.8238C35.7769 11.7235 35.6442 11.8848 35.0517 11.6145C34.9836 11.6137 34.9726 11.6063 34.9133 11.5767C34.8546 11.3936 34.872 10.2553 34.8839 9.97378C34.9098 9.36289 34.8351 8.54224 34.8821 7.96133C34.9304 7.36142 34.7354 4.13065 35.0427 3.92729Z" fill="#787771"/>
<path d="M35.0517 11.6146C34.9836 11.6138 34.9726 11.6063 34.9133 11.5767C34.8546 11.3936 34.872 10.2553 34.8839 9.9738C34.9098 9.36291 34.8351 8.54226 34.8821 7.96135C34.9304 7.36144 34.7354 4.13067 35.0427 3.92731C35.0789 4.36243 35.0606 5.03453 35.061 5.48679V8.24812V10.489C35.061 10.7467 35.0768 11.381 35.0517 11.6146Z" fill="#787771"/>
<path d="M35.0511 11.6149C35.8317 11.5837 35.8572 11.6818 36.5624 11.7667C36.9754 11.8164 37.7875 11.761 38.2358 11.7914C38.3919 11.802 39.044 11.7905 39.1805 11.7595C39.5552 11.6745 39.5212 11.606 39.9636 11.6015C39.8772 11.629 39.8041 11.6375 39.7535 11.7179C38.491 12.0543 37.588 12.0638 36.3106 11.8241C35.7764 11.7239 35.6436 11.8852 35.0511 11.6149Z" fill="#787771"/>
<path d="M42.3662 6.75636C42.6852 7.06707 42.5836 8.04887 42.4964 8.46587C42.4896 8.49827 42.3943 8.59211 42.3645 8.67399C42.3752 8.03484 42.376 7.39551 42.3662 6.75636Z" fill="#787771"/>
<path d="M36.8215 5.01137C37.8654 4.98973 38.9526 4.64573 39.8088 5.48344C40.1712 5.83816 40.4371 6.38148 40.5052 6.88445C40.6995 8.3259 40.5341 10.2775 38.6846 10.4044C38.463 10.6739 37.5876 10.6721 37.3307 10.406L36.8313 10.3961C36.8075 9.89256 36.8071 9.36637 36.8143 8.86191C36.8322 7.58317 36.7875 6.28777 36.8215 5.01137Z" fill="#F7F7F4"/>
<path d="M37.3307 10.4063C37.7731 10.4048 38.2444 10.3955 38.6846 10.4046C38.463 10.6742 37.5876 10.6724 37.3307 10.4063Z" fill="#787771"/>
<path d="M18.9569 8.68444C19.1984 8.26395 19.2668 7.92109 19.4939 7.42156C19.9771 6.3586 20.4107 4.65125 21.0833 3.75636C21.3198 3.44169 22.5738 3.51558 22.9932 3.52681C23.0485 4.48713 23.1982 5.38479 23.2456 6.34167C23.258 6.59133 23.3428 6.89788 23.3679 7.16072L23.7376 10.715C23.7668 10.9928 23.7584 11.3613 23.791 11.6056L23.7724 11.7103C23.5987 11.8434 22.3264 11.7866 22.0237 11.783C21.9833 11.4327 21.8819 11.1109 21.8526 10.8113C21.8005 10.2792 21.7962 9.57066 21.8142 9.0335C21.8209 8.4358 21.744 8.26454 21.679 7.69779C21.6251 7.22819 21.6754 6.7989 21.5819 6.29941C21.1225 7.51323 20.5877 8.71509 20.1025 9.91985C19.9769 10.2318 19.8754 10.6239 19.5427 10.7573C19.1186 10.9375 18.3301 10.9106 18.1279 10.4132C17.6498 9.23626 17.1499 8.06981 16.676 6.89125C16.5872 6.67046 16.5176 6.47462 16.4636 6.2427C16.3598 7.05345 16.1939 8.5912 16.2428 9.42113C16.2858 9.84553 16.3594 11.4139 16.1019 11.7283C16.0935 11.7385 16.085 11.7486 16.0763 11.7586C15.5465 11.8215 14.8621 11.7864 14.3273 11.7593C14.1476 11.7502 14.2679 11.1437 14.2853 11.0449C14.3099 10.4942 14.3758 9.99931 14.469 9.45573C14.5203 9.15637 14.4872 8.80102 14.5306 8.50004C14.6738 7.50659 14.7338 6.51999 14.8683 5.52369C14.9542 4.88756 14.9295 4.17685 15.009 3.52681C15.523 3.51694 16.5433 3.38952 16.9459 3.77332C17.4096 4.21528 18.7547 7.94762 18.9569 8.68444Z" fill="#787771"/>
<path d="M21.8138 9.03341C21.8761 9.27942 21.9591 9.46517 21.9748 9.72074C22.0131 10.3431 22.0181 10.9724 22.0408 11.5951C22.6207 11.6184 23.2096 11.6092 23.7905 11.6055L23.7719 11.7102C23.5982 11.8434 22.326 11.7865 22.0233 11.7829C21.9829 11.4326 21.8814 11.1108 21.8521 10.8113C21.8 10.2791 21.7958 9.57057 21.8138 9.03341Z" fill="#787771"/>
<path d="M15.913 11.6056C15.9091 11.3272 15.8576 11.1021 16.0759 10.9043C16.0799 11.024 16.0643 11.7228 16.0763 11.7584C15.5465 11.8214 14.8621 11.7862 14.3273 11.7592C14.1476 11.7501 14.2679 11.1436 14.2853 11.0447C14.2971 11.2041 14.2948 11.4443 14.2982 11.61L15.913 11.6056Z" fill="#787771"/>
<path d="M16.0753 10.9046C16.0719 10.5499 15.9944 9.63505 16.2422 9.42128C16.2852 9.84568 16.3588 11.414 16.1013 11.7284C16.0929 11.7386 16.0844 11.7487 16.0757 11.7587C16.0637 11.7231 16.0793 11.0243 16.0753 10.9046Z" fill="#F7F7F4"/>
<path d="M26.6022 5.49706C26.5983 5.48758 26.5946 5.4781 26.5911 5.46857C26.5253 5.29489 26.2121 4.3014 26.2675 4.17755C26.6384 3.85952 27.8713 3.648 28.4001 3.57917C29.7481 3.4037 32.0589 3.43742 32.2882 5.21266C32.3569 5.2525 32.4229 5.27737 32.4278 5.37091C32.4573 5.92342 32.5105 11.4438 32.4071 11.5528L32.2854 11.576C31.6263 11.5346 31.2758 11.5253 30.6569 11.2509C30.2122 11.4735 29.8256 11.6025 29.3345 11.6901C29.3131 11.6939 29.3272 11.7492 29.2341 11.7659C29.1288 11.7954 28.9961 11.8832 28.9285 11.8983C28.5311 11.9872 27.8194 12.1032 27.5215 11.7738C26.9933 11.6676 26.6011 11.5258 26.2098 11.1446C25.349 10.3061 25.3785 8.6314 26.221 7.79807C27.2419 6.78821 29.1977 6.93141 30.539 6.92971C30.5437 6.62193 30.5733 5.99106 30.4701 5.73128C29.9884 4.51956 27.452 5.21271 26.6022 5.49706Z" fill="#787771"/>
<path d="M32.2883 5.21255C32.3571 5.25239 32.4231 5.27726 32.428 5.3708C32.4575 5.92331 32.5107 11.4437 32.4073 11.5527L32.2856 11.5759C32.2787 11.3057 32.2803 11.0259 32.2831 10.7549C32.302 8.91071 32.2543 7.05566 32.2883 5.21255Z" fill="#787771"/>
<path d="M27.5215 11.7735C28.1229 11.7923 28.6341 11.7805 29.2341 11.7656C29.1288 11.7952 28.9962 11.8829 28.9286 11.8981C28.5311 11.987 27.8195 12.103 27.5215 11.7735Z" fill="#787771"/>
<path d="M30.3772 8.13916C30.5135 8.09736 30.4765 8.1091 30.6273 8.15812C30.7776 8.37351 30.7311 9.69706 30.6819 9.99999C30.6149 10.0848 30.6499 10.0634 30.5418 10.0832C30.2601 10.0904 29.4743 10.3207 28.9871 10.4046C27.7192 10.6228 26.888 9.8775 27.5598 8.65076C27.849 8.12266 29.6305 8.19239 30.3772 8.13916Z" fill="#F7F7F4"/>
<path d="M30.377 8.13916C30.5134 8.09736 30.4763 8.1091 30.6271 8.15812C30.7775 8.37351 30.7309 9.69706 30.6818 9.99999C30.6147 10.0848 30.6497 10.0634 30.5416 10.0832C30.5055 9.71589 30.6046 8.42206 30.4863 8.17457L30.377 8.13916Z" fill="#787771"/>
<path d="M5.77545 4.13728C7.09938 3.55726 9.24319 3.27835 10.6226 3.75356C12.2706 4.32133 11.9474 6.37132 11.9435 7.74423L11.945 11.5593C11.2189 11.5471 10.9047 11.5637 10.2373 11.2638C9.62061 11.5056 9.40653 11.5316 8.84697 11.7097L8.85071 11.745L8.76891 11.7465C8.67219 11.7855 8.5841 11.8777 8.48954 11.9002C7.98562 12.02 7.55022 12.0582 7.09853 11.7834C5.84342 11.6639 5.05225 10.5932 5.1155 9.37033C5.24702 6.82719 8.10582 6.84709 10.0045 6.94641C9.97289 6.69998 9.9854 5.9493 9.98876 5.68336C9.56038 4.52835 6.97488 5.24097 6.10149 5.49722C6.04827 5.21563 6.0025 4.91674 5.89229 4.65347L5.8891 4.67614C5.79646 4.46291 5.7945 4.36279 5.77545 4.13728Z" fill="#787771"/>
<path d="M7.09867 11.7831C7.57363 11.7875 8.30712 11.809 8.76906 11.7462C8.67233 11.7851 8.58424 11.8774 8.48969 11.8999C7.98576 12.0197 7.55036 12.0578 7.09867 11.7831Z" fill="#787771"/>
<path d="M9.98843 5.68306C10.1913 5.90253 10.2433 6.67039 10.1159 6.91354L10.0042 6.94611C9.97256 6.69968 9.98507 5.949 9.98843 5.68306Z" fill="#F7F7F4"/>
<path d="M10.1946 8.11776C10.2637 8.16032 10.3136 8.16683 10.3184 8.25156C10.3421 8.66687 10.4289 9.68472 10.1562 9.98451C10.1205 10.0277 10.0926 10.0732 10.0377 10.0815C9.61281 10.1226 9.04002 10.3338 8.44473 10.411C7.25062 10.5657 6.36187 9.81729 7.08154 8.66759C7.41553 8.13401 9.11302 8.18622 9.84255 8.14787C9.93085 8.14162 10.1167 8.13286 10.1946 8.11776Z" fill="#F7F7F4"/>
<path d="M10.1942 8.11776C10.2633 8.16032 10.3132 8.16683 10.318 8.25156C10.3417 8.66687 10.4284 9.68472 10.1557 9.98451C10.1201 10.0277 10.0922 10.0732 10.0372 10.0815C9.92852 9.60088 10.1288 8.43116 9.84213 8.14787C9.93043 8.14162 10.1163 8.13286 10.1942 8.11776Z" fill="#F7F7F4"/>
<path d="M10.1942 8.11776C10.2634 8.16032 10.3133 8.16683 10.3181 8.25156C10.3418 8.66687 10.4285 9.68472 10.1558 9.98451C10.1543 9.62099 10.1291 8.40832 10.1942 8.11776Z" fill="#787771"/>
<path d="M53.5339 3.60406C53.8044 3.56273 54.1285 3.54543 54.3986 3.59232C54.4084 5.43811 54.4297 7.34558 54.4059 9.18809C54.4667 9.61649 54.5569 9.77167 54.8768 10.0906C55.7785 10.3827 57.0865 10.1645 57.9189 9.73749C57.9317 9.73082 57.9449 9.72401 57.9576 9.71713L57.9878 9.25242C57.8445 8.61994 57.7939 4.45146 57.9772 3.83509L57.9878 3.65261C58.266 3.44955 59.4051 3.67413 59.8067 3.71061C59.8075 6.30566 59.7773 8.96483 59.8143 11.5544C58.981 11.5483 58.8203 11.5176 58.0321 11.2126C57.4323 11.4894 57.1643 11.5692 56.4948 11.7085L56.5837 11.7392L56.4514 11.7646C55.8274 11.9476 55.0333 12.1806 54.4331 11.7721C53.2527 11.7136 52.6687 10.6198 52.5998 9.5744C52.5441 8.72755 52.5305 7.94902 52.5305 7.10124C52.5249 5.96591 52.5351 4.83054 52.5607 3.69547C52.8835 3.66065 53.2098 3.62209 53.5339 3.60406Z" fill="#787771"/>
<path d="M53.5339 3.60406C53.8044 3.56273 54.1286 3.54543 54.3987 3.59232C54.4085 5.43811 54.4297 7.34558 54.4059 9.18809L54.3072 9.09846C54.1341 8.57147 54.2362 4.468 54.2332 3.60614C53.998 3.61243 53.7696 3.60801 53.5339 3.60406Z" fill="#787771"/>
<path d="M57.9774 3.83524C58.1161 4.35981 58.0957 8.65112 57.988 9.25256C57.8447 8.62008 57.7941 4.4516 57.9774 3.83524Z" fill="#787771"/>
<path d="M54.4332 11.7725C55.1384 11.7951 55.7526 11.7706 56.4515 11.765C55.8275 11.9479 55.0333 12.181 54.4332 11.7725Z" fill="#787771"/>
<path d="M44.5738 3.88306C46.6159 3.45861 48.2438 3.38829 50.3225 3.70729C50.3306 4.16129 50.3297 4.61541 50.3204 5.06936C49.7993 5.02357 49.2774 4.98641 48.7568 4.94088C47.9545 4.87064 47.1983 4.96158 46.3973 5.0135L46.3952 6.92369L48.6679 6.92799C48.9524 6.92828 49.6385 6.94189 49.8857 6.9035L50.0103 6.94189C50.1013 7.13402 50.1043 8.12624 50.0095 8.31136L49.8942 8.34715C48.7793 8.29885 47.5279 8.34988 46.3973 8.33461C46.396 8.6034 46.3505 10.1219 46.4466 10.2374L46.6351 10.2633C46.5504 10.3068 46.5185 10.325 46.4262 10.3471C46.7559 10.3736 47.0787 10.4029 47.4097 10.4052C47.9677 10.4039 48.5488 10.3941 49.1047 10.4032C49.5773 10.3916 50.0499 10.3722 50.5216 10.345C50.4982 10.7255 50.4714 11.2097 50.5114 11.5856C50.4688 11.6086 50.3536 11.728 50.3174 11.7347C48.7529 12.0259 46.8792 12.1371 45.3556 11.6047C45.0995 11.58 44.8354 11.5453 44.5793 11.515L44.5797 10.7309C44.5678 10.3405 44.4742 9.94285 44.4721 9.49434C44.4666 8.24669 44.4504 6.98793 44.4751 5.74049C44.4815 5.40308 44.5568 4.97561 44.5797 4.60716C44.578 4.36762 44.5789 4.12188 44.5738 3.88306Z" fill="#787771"/>
<path d="M44.5797 4.60743C44.6771 5.37975 44.6367 6.89411 44.638 7.71235C44.6397 8.48161 44.6742 10.0115 44.5797 10.7311C44.5678 10.3407 44.4742 9.94312 44.4721 9.49461C44.4666 8.24696 44.4504 6.9882 44.4751 5.74076C44.4815 5.40335 44.5568 4.97588 44.5797 4.60743Z" fill="#787771"/>
<path d="M45.3556 11.6047C46.0001 11.602 46.2731 11.7688 46.8316 11.7774C47.5926 11.789 48.485 11.8117 49.2405 11.7632C49.6122 11.7393 50.0665 11.622 50.5114 11.5856C50.4689 11.6086 50.3536 11.7279 50.3175 11.7347C48.753 12.0259 46.8793 12.137 45.3556 11.6047Z" fill="#787771"/>
<path d="M47.4097 10.4053C47.9677 10.404 48.5488 10.3943 49.1047 10.4034C49.0869 10.4229 49.0686 10.4417 49.049 10.4597C48.8299 10.6619 47.6577 10.6745 47.4097 10.4053Z" fill="#787771"/>
<path d="M49.8859 6.90338L50.0106 6.94177C50.1016 7.1339 50.1046 8.12612 50.0097 8.31124L49.8944 8.34703C49.8685 7.9447 49.8655 7.3069 49.8859 6.90338Z" fill="#787771"/>
<path d="M62.2009 10.1723C63.1681 10.2506 64.0303 10.5242 65.0559 10.4094C65.6412 10.3439 66.4808 9.72029 65.9925 9.10915C64.5723 7.92085 61.981 8.29772 62.0669 5.75113C62.1243 4.0499 63.7896 3.43575 65.2996 3.52265C65.668 3.54089 67.4281 3.7812 67.5383 4.17775C67.506 4.4337 67.2707 5.15793 67.1644 5.40211C66.1223 5.05653 64.354 4.40628 63.7709 5.76248C64.3796 7.3598 68.0219 6.92816 67.8637 9.32331C67.8433 9.58814 67.9007 10.1251 67.7701 10.3487C67.4745 10.8535 66.9751 11.3616 66.406 11.549C66.4051 11.5493 65.6131 11.7569 65.6909 11.7623C64.5467 12.2238 63.3089 11.8716 62.1579 11.6213C62.1171 11.5988 62.0682 11.584 62.0618 11.549C61.9878 11.1332 62.1792 10.5978 62.2009 10.1723Z" fill="#787771"/>
<path d="M62.1579 11.6213C62.9069 11.5654 62.8852 11.7285 63.5365 11.7707C64.2081 11.8142 65.0103 11.7732 65.6909 11.7623C64.5467 12.2239 63.3089 11.8716 62.1579 11.6213Z" fill="#787771"/>
</svg>
