<svg width="132" height="15" viewBox="0 0 132 15" fill="none" xmlns="http://www.w3.org/2000/svg">
<g clip-path="url(#clip0_10_197)">
<path d="M60.2091 2.90081C62.5704 2.76561 64.5977 4.56241 64.7472 6.92283C64.8967 9.28324 63.1119 11.3213 60.7522 11.4848C58.373 11.6497 56.3136 9.84652 56.1628 7.46603C56.0125 5.08553 57.8277 3.03719 60.2091 2.90081ZM60.7422 10.0707C61.3724 10.0518 62.0181 9.65563 62.4392 9.20727C63.0107 8.5988 63.1923 7.89306 63.164 7.07524C63.1373 6.30344 62.8711 5.51877 62.2959 4.98153C61.7956 4.51426 61.0813 4.26055 60.3961 4.2845C60.3074 4.28762 60.2186 4.30024 60.1312 4.3147C59.9937 4.41929 59.8238 4.32265 59.6776 4.38846C59.3268 4.546 58.65 4.9764 58.4409 5.28543C58.3284 5.45196 58.2859 5.66473 58.1568 5.81855C57.9069 6.11575 57.9673 6.57131 57.8298 6.91071C57.7686 7.06174 57.7678 7.43737 57.8315 7.58878C57.8423 7.61415 57.8556 7.63793 57.8677 7.66263C57.9452 7.82329 57.8819 8.06938 57.9277 8.24811C58.0981 8.91149 58.8503 9.69595 59.4668 9.92542C59.8867 10.0817 60.3024 10.0795 60.7422 10.0707Z" fill="#787771"/>
<path d="M123.843 0.0250887C124.18 0.00541991 125.668 -0.0825772 125.83 0.156234C125.78 0.277113 125.607 0.398116 125.528 0.474338C125.505 0.519315 125.303 0.862998 125.258 0.862706C124.003 0.854042 123.04 0.988041 121.881 1.57865C120.473 2.28892 119.408 3.53407 118.925 5.03546C118.409 6.63017 118.541 8.33221 119.401 9.73964C119.574 10.0121 119.69 10.3513 119.897 10.5998C123.785 15.276 131.22 12.3824 130.769 6.24933C130.758 6.10138 130.771 5.94218 130.679 5.81234C130.577 5.66985 130.664 5.45733 130.626 5.29422C130.6 5.21124 130.518 5.12306 130.493 5.04201C129.968 3.3173 128.592 1.9846 126.954 1.31065C126.899 1.28807 126.828 0.775155 126.771 0.689332C126.683 0.557657 126.664 0.427782 126.815 0.330921C126.993 0.325964 127.929 0.754241 128.186 0.853834C128.233 0.930851 128.261 0.948637 128.336 0.988791C130.875 2.34865 132.405 5.4877 131.845 8.32188C131.818 8.45755 131.861 8.63341 131.829 8.75512C129.414 17.7295 116.658 15.5102 117.516 6.20905C117.511 6.26133 117.708 5.2554 117.69 5.31458C118.215 3.61004 119.301 1.93932 120.903 1.08555C120.972 1.04898 121.076 0.899444 121.157 0.859915C122 0.43408 122.901 0.130993 123.843 0.0250887Z" fill="#787771"/>
<path d="M37.2281 2.97372C37.2436 2.97139 37.259 2.96939 37.2746 2.96768C38.0334 2.88433 38.8569 2.97259 39.465 3.47306C39.8249 3.76947 40.0798 4.16451 40.1223 4.63548C40.1477 4.91639 40.0194 5.56198 39.8895 5.81103C39.7828 6.01454 39.2059 6.59407 39.0147 6.72524C38.8519 6.83682 38.587 6.89701 38.4624 7.04476L38.4978 7.21533C38.8994 7.52294 39.1814 8.25217 39.6616 8.3935C39.8482 8.36371 40.1569 7.62253 40.3681 7.45163C40.8092 7.39573 41.3444 7.40394 41.7859 7.45992L41.8005 7.50532C41.449 8.05744 41.0495 8.57923 40.7038 9.13355C40.6092 9.28555 40.5088 9.43529 40.5509 9.61753C40.6513 9.69413 40.7833 9.78264 40.8592 9.88323C40.9954 10.0641 40.9537 10.1753 41.189 10.2854C41.2686 10.4759 41.4094 10.5235 41.5394 10.6662C41.5552 10.6837 42.0113 11.2878 42.02 11.3038L41.9975 11.357L41.8309 11.3644C41.3186 11.3677 40.7075 11.4014 40.2135 11.3289C40.0082 11.1789 39.7328 10.4127 39.4596 10.6864C37.9309 12.2397 34.8582 11.6661 34.7288 9.22807C34.7039 8.75984 34.8898 8.47385 35.0802 8.0489C35.2126 7.75358 35.9088 6.99607 36.2435 6.9829L36.2693 6.94487C36.1744 6.68279 35.8047 6.13792 35.6294 5.90162C35.5989 5.11196 35.2285 5.06797 35.6491 4.13189C35.9822 3.39067 36.4786 3.24384 37.2281 2.97372ZM37.0912 7.80377C36.7914 7.93302 36.4858 8.31681 36.367 8.61297C36.248 8.9095 36.2289 9.25801 36.3592 9.55459C36.4376 9.73311 36.6998 10.0926 36.8883 10.1671C37.1913 10.2869 37.641 10.1737 37.9572 10.162C38.1646 10.1005 38.5532 9.86753 38.6578 9.67896C38.6628 9.66984 38.6673 9.66035 38.6719 9.65089C38.5815 9.42559 37.3165 7.93881 37.1043 7.8041L37.0912 7.80377ZM37.9376 5.93969C38.1096 5.92099 38.3583 5.67957 38.4637 5.54657C38.6374 5.32672 38.7232 5.03544 38.6873 4.75744C38.6607 4.5488 38.5591 4.34707 38.3899 4.21774C38.205 4.07608 37.9505 4.04296 37.7256 4.07528C37.6908 4.08028 37.6551 4.08478 37.6217 4.09599C37.3478 4.19291 37.1455 4.30292 37.0162 4.57567C36.8878 4.84658 36.9178 5.13949 37.0191 5.41365C37.1063 5.64974 37.2813 5.95648 37.5202 6.06965C37.5908 6.1031 37.6718 6.11497 37.7456 6.0869C37.8151 6.06032 37.8822 5.98939 37.9376 5.93969Z" fill="#787771"/>
<path d="M0.00685338 3.17254C1.28104 3.16866 3.28507 2.94478 4.33099 3.74077C4.59836 3.94429 4.98482 4.44451 5.02539 4.79236C5.05118 5.01358 5.10483 5.54141 5.02802 5.74501C4.97124 5.89555 4.86757 6.02484 4.80092 6.17063C4.74161 6.30038 4.69475 6.4567 4.58937 6.55621C4.43762 6.69946 4.20994 6.78964 4.08461 6.95496C4.20499 7.12749 4.5982 7.18905 4.77822 7.32105C4.95825 7.4531 5.14002 7.72193 5.25403 7.90995C5.50503 8.32407 5.66852 8.91355 5.54898 9.39485C5.49983 9.59275 5.40394 9.77498 5.35437 9.97742L5.30951 10.0027C5.22054 10.183 5.10012 10.3578 4.9575 10.4995C4.11785 11.3334 2.78581 11.2851 1.69932 11.2843L0.00691567 11.281L0.00685338 3.17254ZM1.60398 10.0454C2.12694 10.0492 3.18065 10.1224 3.57469 9.72737C3.57835 9.72371 3.58194 9.71992 3.58552 9.71617C3.77271 9.56497 3.92745 9.28306 3.95436 9.04184C3.96781 8.9213 3.9474 8.84003 3.87805 8.74335C3.67549 8.46094 3.92895 8.33848 3.49384 8.09818C3.33027 8.00575 3.15291 7.94011 2.96855 7.90383C2.53269 7.82044 2.04717 7.8603 1.60398 7.86555V10.0454ZM1.60398 6.57387C2.0238 6.57396 2.86016 6.64014 3.17669 6.33807C3.18789 6.32737 3.19693 6.31704 3.20614 6.30463C3.44256 6.03734 3.59585 5.7533 3.57023 5.38059C3.55124 5.13725 3.4359 4.91153 3.24983 4.75354C2.81422 4.37657 2.15905 4.36766 1.61506 4.38049C1.5864 5.11001 1.6024 5.84377 1.60398 6.57387Z" fill="#787771"/>
<path d="M68.4035 3.01656C68.78 3.23078 71.1363 8.19062 71.4937 8.38348C71.5391 8.34183 74.0417 3.66681 74.0588 3.5526L74.0604 3.54081C74.2195 3.42439 74.215 3.17018 74.3866 3.0842L74.4478 3.11111L76.0894 9.54036C76.1806 9.90845 76.4796 10.7614 76.4851 11.0884C76.4859 11.1279 76.4767 11.1862 76.448 11.2147C76.2668 11.3928 75.178 11.2815 74.881 11.2771C74.8268 10.8305 74.3341 8.49303 74.18 8.19537C74.1708 8.03188 74.0096 7.18886 73.9342 7.07594C73.5643 7.254 73.2961 8.36744 72.9995 8.62361C72.9624 8.65573 72.9849 8.75919 72.9466 8.80351C72.5363 9.28178 71.7328 11.2956 71.3954 11.4682C71.2742 11.4022 69.5248 8.13223 69.2753 7.69028C69.1624 7.49047 69.0628 7.15583 68.89 7.01616L68.8254 7.02553C68.7846 7.66296 68.5767 8.33591 68.4397 8.96263C68.2673 9.75109 68.1256 10.549 67.9174 11.3288C67.6179 11.4262 67.1014 11.3831 66.7756 11.3673C66.6565 11.3615 66.517 11.3525 66.432 11.2587C66.3762 11.1154 68.2498 3.87029 68.4035 3.01656Z" fill="#787771"/>
<path d="M21.6807 11.3646C21.6804 9.16468 21.6774 5.47152 21.6835 3.12397C21.7062 3.10006 21.7254 3.07974 21.7413 3.06303C21.9324 3.09981 26.4426 7.40403 27.0517 7.8693C27.1276 7.76017 27.0954 3.6628 27.0952 3.17275H28.6372L28.6382 8.67604C28.6382 9.35387 28.6776 10.8817 28.6055 11.4833L28.6044 11.484C28.3794 11.3603 27.6104 10.6141 27.3644 10.3903L24.3374 7.58868C24.1912 7.45335 24.0366 7.34001 23.882 7.21147C23.6774 7.04135 23.4878 6.78852 23.3117 6.62503L23.298 6.61232L23.2096 6.5855C23.1062 6.73578 23.1807 10.7587 23.1556 11.3599C22.7148 11.3794 22.1321 11.3636 21.6807 11.3646Z" fill="#787771"/>
<path d="M95.1209 3.02008C95.3462 3.10846 95.5295 3.4309 95.7119 3.59065C95.8523 3.71369 96.026 3.79825 96.163 3.92425L98.9613 6.51172C99.2625 6.79109 100.139 7.7245 100.458 7.84783C100.552 7.67356 100.489 3.71452 100.489 3.17265H102.009C102.01 5.95194 102.044 8.73555 102.002 11.5143C101.74 11.3985 100.873 10.4903 100.621 10.2494C99.8002 9.46236 98.9492 8.70194 98.1132 7.93043C97.725 7.57196 97.3581 7.16868 96.9482 6.83599C96.8645 6.76805 96.7782 6.68787 96.6687 6.68795C96.5683 6.92067 96.6429 10.7028 96.6433 11.2811H95.0738C95.0734 10.3543 94.9967 3.28258 95.1209 3.02008Z" fill="#787771"/>
<path d="M79.1761 3.17259C80.2824 3.17005 82.0548 3.01647 83.0545 3.45892C83.3036 3.5693 83.5939 3.82792 83.7963 4.01582C84.3012 4.48409 84.4453 5.00064 84.4715 5.66713C84.4965 6.30876 84.3166 6.92707 83.8717 7.40454C83.3219 7.99431 82.3584 8.27889 81.572 8.31021L80.7315 8.3065V11.281H79.1761V3.17259ZM80.7315 6.98067C81.2509 7.02641 82.0102 7.05336 82.4272 6.6906C82.4422 6.67748 82.4555 6.66311 82.4696 6.64911C82.4905 6.6287 82.5167 6.61387 82.5413 6.59929C82.785 6.29831 82.9653 5.95004 82.9228 5.54909C82.8899 5.24148 82.7246 4.95532 82.4838 4.7625C81.994 4.36971 81.3313 4.36071 80.7348 4.39045L80.7315 6.98067Z" fill="#787771"/>
<path d="M10.6604 2.96363C10.702 2.98758 11.3183 4.31174 11.3759 4.4327L13.8666 9.65192C13.9818 9.89501 14.5636 11.0495 14.5932 11.2197C14.4465 11.31 12.9287 11.381 12.8134 11.1227C12.6228 10.6956 12.3822 9.90455 12.0983 9.55899C11.8301 9.49718 11.0514 9.52809 10.7262 9.53163C10.3444 9.52979 9.44435 9.49601 9.13237 9.55966C8.91294 9.60444 8.46783 11.0525 8.27285 11.2137C8.1281 11.3334 6.97435 11.2837 6.7575 11.2638L6.72072 11.2058C6.8498 10.7277 7.6273 9.32623 7.86981 8.7837C8.71088 6.902 9.67399 5.03301 10.5226 3.15198C10.5513 3.0885 10.6109 3.01453 10.6604 2.96363ZM10.6012 8.22612C10.8816 8.22833 11.2041 8.25799 11.477 8.19522C11.5037 8.1449 11.5007 8.1459 11.4839 8.09092C11.2728 7.39918 10.9665 6.70602 10.6939 6.03528L10.6724 6.02432C10.6237 6.05802 10.5691 6.10192 10.5378 6.15312C10.4747 6.25642 10.446 6.41237 10.3955 6.52775C10.1636 7.0572 9.89392 7.58587 9.70352 8.13103L9.71202 8.18172C9.98256 8.26003 10.3202 8.22816 10.6012 8.22612Z" fill="#787771"/>
<path d="M89.1823 2.97657C89.2502 3.02097 89.7401 4.15599 89.8267 4.33497L92.0031 8.89677C92.3351 9.58997 92.7782 10.3147 93.0182 11.0401C93.0498 11.1347 93.0711 11.1808 93.0248 11.2731C92.6171 11.2832 92.2018 11.3074 91.7944 11.2881C91.6386 11.2808 91.4399 11.2727 91.3283 11.1499C91.3091 11.0156 90.7501 9.75042 90.6581 9.6577C90.4044 9.40257 89.4901 9.53145 89.1177 9.53191C88.7316 9.53515 87.9669 9.43298 87.6299 9.55886C87.3741 9.65437 86.9143 11.1701 86.8076 11.2239C86.619 11.3191 85.4081 11.3194 85.2298 11.2607C85.2198 11.2294 85.2148 11.198 85.2198 11.165C85.2406 11.0299 85.9217 9.68094 86.0337 9.44056L88.3584 4.57606C88.4959 4.28811 88.9407 3.22499 89.0532 3.06933C89.0723 3.04297 89.1536 2.99744 89.1823 2.97657ZM89.0344 8.2264C89.3418 8.22836 89.6767 8.2541 89.9787 8.1972C89.9837 8.17225 89.9991 8.12814 89.9983 8.10386C89.9937 7.98681 89.2927 6.20721 89.1906 6.05505C89.184 6.04476 89.1794 6.04218 89.1706 6.03543C89.1394 6.05926 89.0719 6.09725 89.0507 6.12694C88.9332 6.29252 88.3617 7.72848 88.2784 7.98498C88.2414 8.09815 88.141 8.07033 88.1614 8.19766C88.3642 8.28913 88.8024 8.2264 89.0344 8.2264Z" fill="#787771"/>
<path d="M50.3486 2.97493C51.0646 2.93611 51.7248 2.92787 52.4129 3.15092C52.6591 3.23069 52.9111 3.32449 53.1394 3.44658C53.3793 3.57458 54.2074 4.14835 54.3182 4.38132C54.3548 4.45771 54.3636 4.54115 54.3348 4.6215C54.2299 4.91607 53.9758 4.91611 53.7796 5.08039C53.6167 5.21668 53.4943 5.39354 53.301 5.49055C53.1606 5.48564 53.0727 5.27754 52.9857 5.16532C52.7299 4.83459 52.248 4.65036 51.9064 4.41943C51.8831 4.40361 51.8598 4.38703 51.8323 4.3787C51.2687 4.20771 50.3511 4.3335 49.8562 4.62383C49.366 4.91153 48.8278 5.44086 48.6054 5.97065C48.5204 6.17279 48.4646 6.47166 48.41 6.68713C48.2672 7.25137 48.5358 8.41983 48.8274 8.90355C49.1694 9.47121 49.8383 9.92135 50.4769 10.0739C51.4757 10.3127 51.916 10.041 52.712 9.55343C52.8549 9.50049 53.1306 8.99948 53.2218 8.85028C53.5467 8.95349 54.1865 9.51257 54.4023 9.7879C54.3986 9.83309 54.3906 9.87774 54.3744 9.92019C54.2315 10.2883 53.2664 10.9687 52.9032 11.1355C51.8873 11.6017 50.5369 11.6104 49.4955 11.2222C48.4929 10.8453 47.6811 10.0863 47.2371 9.11149C46.7439 8.02875 46.7256 6.7487 47.1429 5.63992C47.5149 4.65261 48.3201 3.75102 49.2977 3.33707C49.6388 3.19257 50.0204 3.12401 50.3486 2.97493Z" fill="#787771"/>
<path d="M103.844 3.18387C104.21 3.15317 105.311 3.08777 105.618 3.21819C105.947 3.35723 107.255 6.15963 107.634 6.2908C108.034 5.61372 108.5 4.95376 108.927 4.28764C109.141 3.95325 109.345 3.52942 109.6 3.22969C109.87 3.09656 110.924 3.15646 111.265 3.18424C111.278 3.33336 109.6 5.98102 109.382 6.25377C109.381 6.25548 109.378 6.25681 109.377 6.25889C109.138 6.81667 108.7 7.25099 108.445 7.80107C108.262 8.19515 108.36 10.6527 108.362 11.2811H106.82L106.823 8.9914C106.824 8.67475 106.872 8.28013 106.809 7.9746C106.765 7.757 104.157 3.5665 103.844 3.18387Z" fill="#787771"/>
<path d="M125.893 1.7829L125.931 1.77328C126.144 2.01633 126.966 6.58929 127.216 7.24842C127.26 7.36201 127.298 7.55345 127.199 7.64946L127.166 7.56694C126.476 7.46497 125.77 7.27149 125.093 7.1088C124.829 7.0454 124.651 6.985 124.377 6.98667C124.145 6.849 122.764 6.66027 122.34 6.43501C122.51 6.13256 122.872 5.68287 123.091 5.39705L124.432 3.65993C124.727 3.2788 125.599 2.07823 125.893 1.7829Z" fill="#787771"/>
<path d="M16.6126 3.17299H18.1538V11.2815L16.6126 11.2814V3.17299Z" fill="#787771"/>
<path d="M23.1559 11.3597C23.1811 10.7585 23.1066 6.73559 23.21 6.5853L23.2984 6.61213C23.2267 8.13152 23.3522 9.81482 23.2762 11.3126C23.2095 11.3668 23.2413 11.3545 23.1559 11.3597Z" fill="#787771"/>
</g>
<defs>
<clipPath id="clip0_10_197">
<rect width="131.664" height="14.417" fill="white" transform="scale(1.00255)"/>
</clipPath>
</defs>
</svg>
