<svg width="63" height="18" viewBox="0 0 63 18" fill="none" xmlns="http://www.w3.org/2000/svg">
<g clip-path="url(#clip0_10_298)">
<path d="M38.7461 10.094C38.8679 10.098 38.9896 10.1052 39.111 10.1154C39.7418 10.1691 40.3244 10.4753 40.7271 10.9647C42.1856 12.7301 41.4293 16.6144 38.6174 16.3073C37.9205 16.2312 37.516 15.939 37.0843 15.4105L37.0854 16.831L37.0851 18.0976L35.4794 18.098L35.478 10.2515L37.0118 10.2528L37.0115 11.02C37.5193 10.3504 37.9049 10.149 38.7461 10.094Z" fill="#787771"/>
<path d="M38.1672 11.3354C38.9568 11.2784 39.5104 11.6076 39.716 12.3712C39.9829 13.3625 39.8897 14.7215 38.7556 15.0715C38.4095 15.1059 38.0779 15.1175 37.7639 14.9256C36.8621 14.3744 36.8642 12.7628 37.3245 11.9337C37.5152 11.5903 37.8066 11.4265 38.1672 11.3354Z" fill="white"/>
<path d="M6.37158 0.0134277C6.55859 0.107843 7.89507 1.68577 8.14781 1.95499C10.5408 4.50414 14.8144 9.43834 18.4215 5.86748C19.1925 5.1041 19.6904 4.22805 20.1991 3.2835C20.016 3.9904 19.6969 4.84471 19.4303 5.51846C19.3427 5.72438 19.2529 5.92934 19.161 6.13338C17.0883 10.7285 13.8882 11.1176 10.5671 7.38203C8.6007 5.1703 7.39793 2.76659 6.37158 0.0134277Z" fill="#787771"/>
<path d="M6.56908 8.10867L8.17975 8.10969L8.17732 11.2201C8.6227 10.5893 9.17494 10.203 9.97191 10.2026C10.5014 10.1991 11.1231 10.3179 11.5055 10.7188C12.1998 11.447 12.0696 12.7612 12.0696 13.6996L12.0679 16.2906H10.4522L10.452 14.1364C10.4567 13.2471 10.7223 11.4909 9.44909 11.4734C7.94259 11.4526 8.17512 13.1423 8.1762 14.1658L8.18027 16.262L6.56836 16.2637L6.56908 8.10867Z" fill="#787771"/>
<path d="M15.1891 10.2223C15.2924 10.2057 15.5577 10.2006 15.6643 10.2024C16.3672 10.2074 17.0389 10.4935 17.5305 10.9969C18.2566 11.751 18.4219 12.7115 18.4019 13.716L14.1721 13.715C14.1839 13.9075 14.1963 14.0869 14.2528 14.2717C14.6289 15.4982 16.3278 15.5121 16.8916 14.4444L17.8634 14.4446L18.3012 14.4465C17.9283 15.5029 17.2848 16.2088 16.1491 16.3838C14.2613 16.6856 12.6828 15.5769 12.5699 13.6129C12.4689 11.8475 13.3997 10.4712 15.1891 10.2223Z" fill="#787771"/>
<path d="M15.2617 11.4354C16.2764 11.3678 16.5713 11.7529 16.7959 12.6746L15.7402 12.6755C15.2122 12.6781 14.6838 12.6767 14.1558 12.6711C14.2755 11.9633 14.5483 11.6066 15.2617 11.4354Z" fill="white"/>
<path d="M26.9761 10.095C29.0726 10.1621 29.8665 11.6739 29.8426 13.6037L25.5991 13.6033C25.6209 13.783 25.6415 13.9695 25.6915 14.1434C26.0531 15.3997 27.7488 15.4079 28.335 14.3366L29.6839 14.338L29.7195 14.3592C29.716 14.4744 29.6243 14.6255 29.5812 14.7368C28.8828 16.5432 26.3143 16.7891 24.9578 15.6017C23.7388 14.5347 23.682 12.2216 24.7952 11.0288C25.4143 10.3654 26.0865 10.1385 26.9761 10.095Z" fill="#787771"/>
<path d="M26.6883 11.3346C27.7108 11.2775 28.0192 11.6215 28.2337 12.5723L27.1988 12.5736L25.5991 12.5722C25.7297 11.8807 25.9541 11.4992 26.6883 11.3346Z" fill="white"/>
<path d="M48.4185 10.094L48.4389 10.0942C50.4775 10.1283 51.3191 11.7445 51.2778 13.6023L47.0371 13.6026C47.0814 14.1414 47.2116 14.6867 47.74 14.9435C48.4809 15.3037 49.3785 15.0691 49.7636 14.3344L51.12 14.3373L51.1446 14.3774C51.0856 14.7247 50.7261 15.2752 50.49 15.5311C49.5038 16.5998 47.4441 16.5588 46.394 15.6076C45.7817 15.0508 45.4662 14.26 45.4366 13.437C45.3671 11.4915 46.494 10.1872 48.4185 10.094Z" fill="#787771"/>
<path d="M48.1092 11.3343C49.1482 11.2568 49.4316 11.634 49.6694 12.5724L48.6477 12.5731C48.1059 12.5778 47.5638 12.5758 47.022 12.567C47.1745 11.8753 47.3647 11.5119 48.1092 11.3343Z" fill="white"/>
<path d="M54.0606 10.0955C55.5332 10.0971 56.4984 10.4353 56.7755 11.984L55.2383 11.9853C55.1465 11.3812 54.8031 11.2322 54.2544 11.1699C53.8815 11.1277 53.1633 11.3499 53.219 11.7569C53.3177 12.4785 55.0081 12.5025 55.5555 12.7406C55.9589 12.9161 56.2226 12.9426 56.5319 13.2667C57.1537 13.8814 56.991 15.0499 56.3967 15.6291C55.7739 16.2364 54.8487 16.3266 54.0166 16.321C52.5844 16.2198 51.67 15.7491 51.4834 14.2475L53.0121 14.2469C53.0482 14.5752 53.0849 14.6461 53.302 14.9072C53.6506 15.3271 54.8402 15.3575 55.1583 14.9099C55.9379 13.8141 53.6231 13.6625 53.0094 13.4449C52.342 13.2446 51.649 12.8977 51.6277 12.0823C51.5867 10.5304 52.772 10.1594 54.0606 10.0955Z" fill="#787771"/>
<path d="M59.7037 10.0955C61.15 10.1008 62.1621 10.4372 62.4104 11.9845L60.8791 11.9855C60.848 11.7796 60.8165 11.6505 60.6745 11.4908C60.4675 11.2578 60.1799 11.1788 59.8778 11.17C59.582 11.1614 59.2429 11.2032 59.0189 11.4158C58.9316 11.4986 58.8539 11.6446 58.8605 11.7566C58.8998 12.4359 60.6256 12.5173 61.1546 12.7286C61.5213 12.8437 61.8949 12.9858 62.1743 13.2655C62.785 13.8761 62.6285 15.0676 62.0283 15.637C61.3858 16.2467 60.4741 16.328 59.6319 16.3206C58.2012 16.2124 57.3121 15.7401 57.1235 14.2474L58.6529 14.2471C58.7352 15.0384 59.2435 15.1832 59.9287 15.2377C60.6341 15.2938 61.3475 14.5385 60.7227 14.0784C59.8014 13.4002 57.3426 13.7475 57.2695 12.0816C57.2022 10.5505 58.4197 10.1593 59.7037 10.0955Z" fill="#787771"/>
<path d="M33.2991 10.252L35.0841 10.2522C34.434 11.1489 33.7838 12.1079 33.1466 13.02C33.8718 14.03 34.6045 15.131 35.3132 16.1597L34.7792 16.1605L33.4759 16.1606L32.2527 14.2998L31.0273 16.1604L29.2222 16.1605L31.3328 13.058C30.912 12.4057 30.4113 11.7483 29.9813 11.0974C29.8101 10.8382 29.5618 10.5194 29.4176 10.2565C29.9686 10.2334 30.6814 10.252 31.2442 10.2524L32.276 11.7988L33.2991 10.252Z" fill="#787771"/>
<path d="M2.93636 10.2224C4.19055 10.0772 5.61286 10.6014 5.98471 11.92C6.03283 12.0906 6.05798 12.266 6.08497 12.441L4.4975 12.4422C4.44643 12.1806 4.32266 11.8323 4.1121 11.6827C3.27059 11.0851 2.31646 11.5463 2.05986 12.4693C1.7492 13.5866 1.97494 15.3279 3.46908 15.1965C3.93444 15.1556 4.29088 14.8137 4.44548 14.3908C4.48766 14.2811 4.52908 14.1018 4.59933 14.0129L4.72806 14.0042L6.11302 14.0084C5.87586 15.3548 5.19844 16.1732 3.8083 16.3915C2.12361 16.656 0.563719 15.6495 0.360148 13.9032C0.143884 12.048 0.989228 10.4782 2.93636 10.2224Z" fill="#787771"/>
<path d="M20.9453 8.11956C21.2461 8.08724 21.7557 8.12902 22.068 8.14755L22.0693 9.35935C21.047 9.29588 20.8578 9.28951 20.8637 10.3606L21.9781 10.3639L21.9778 11.4403L20.8647 11.4419L20.8676 14.6621C20.8679 15.0545 20.8896 15.8652 20.8528 16.223C20.7754 16.28 20.6525 16.2646 20.5521 16.2634L19.2471 16.2629C19.2848 14.7079 19.252 13.0057 19.2527 11.4424L18.2842 11.442L18.2852 10.3632L19.251 10.3626C19.2468 9.06434 19.5164 8.29565 20.9453 8.11956Z" fill="#787771"/>
<path d="M45.3461 10.0935C45.495 10.0996 45.5947 10.1186 45.7393 10.1443C45.7446 10.6466 45.7419 11.1489 45.7311 11.6511C43.9079 11.3313 43.497 12.4948 43.5629 14.0496C43.5908 14.7064 43.5655 15.4902 43.5675 16.1596L41.9497 16.1599L41.9503 15.5828L41.9512 10.2511L43.4898 10.2531L43.4842 11.3913C43.8594 10.5862 44.4668 10.1655 45.3461 10.0935Z" fill="#787771"/>
</g>
<defs>
<clipPath id="clip0_10_298">
<rect width="63" height="18" fill="white"/>
</clipPath>
</defs>
</svg>
