<svg width="78" height="17" viewBox="0 0 78 17" fill="none" xmlns="http://www.w3.org/2000/svg">
<path fill-rule="evenodd" clip-rule="evenodd" d="M0 16.7319V15.1043H0.904298C1.35624 15.1043 2.26095 15.0138 2.26095 13.9286V4.16182C2.26095 3.57397 2.21551 2.17228 1.08524 2.17228H0.0454442L1.22116 0.0922749H70.7837V2.17228H6.78286C6.195 2.17228 5.4262 2.30778 5.4262 3.4835V6.55828C5.56212 6.91975 6.10453 7.05524 6.37594 7.05524C6.64736 7.05524 7.59668 7.01022 7.59668 5.51806H8.95334V10.5374H7.59668C7.59668 10.085 7.09722 9.32745 6.42139 9.27117C5.87856 9.22614 5.4262 9.40667 5.4262 10.1304V13.9286C5.4262 14.3359 5.92359 15.1043 7.0993 15.1043H7.91354V16.7319H0Z" fill="#787771"/>
<path fill-rule="evenodd" clip-rule="evenodd" d="M40.144 4.52316C40.144 4.88504 40.596 5.24651 40.867 5.33698C41.1838 5.11101 42.8569 4.16169 44.1681 4.16169C45.4794 4.16169 46.1573 4.8396 46.1573 5.87981V10.8537H42.992V7.0105C42.992 6.51311 42.8569 6.15123 42.4042 6.1062C41.9522 6.06117 40.7765 7.0105 40.4605 7.46286V14.3358C40.4605 14.9691 41.0934 15.421 41.6362 15.421V16.7326H36.1199V15.376C36.6623 15.376 37.2502 15.195 37.2956 14.3812V6.73867C37.2956 6.5127 36.9338 5.87939 36.1199 5.87939V4.52316H40.144ZM77.9999 4.52316H72.484V5.87981C73.2975 5.87981 73.6589 6.5127 73.6589 6.73908V14.3808C73.6143 15.1946 73.026 15.3756 72.484 15.3756V16.7322H77.9999V15.4206C77.4575 15.4206 76.8242 14.9687 76.8242 14.3354V6.82914C76.8242 6.28672 77.412 5.87981 77.9999 5.87981V4.52316ZM27.9354 4.52316C27.9354 4.88504 28.3873 5.24651 28.6587 5.33698C28.9752 5.11101 30.6483 4.16169 31.9595 4.16169C33.2707 4.16169 33.949 4.8396 33.949 5.87981V10.8537H30.7842V7.0105C30.7842 6.51311 30.6483 6.15123 30.1963 6.1062C29.744 6.06117 28.5683 7.0105 28.2518 7.46286V14.3358C28.2518 14.9691 28.8851 15.421 29.4275 15.421V16.7326H23.9113V15.376C24.4537 15.376 25.0416 15.195 25.087 14.3812V6.73867C25.087 6.5127 24.7251 5.87939 23.9113 5.87939V4.52316H27.9354ZM64.6151 4.52316C64.6151 4.88504 65.0679 5.24651 65.3389 5.33698C65.6557 5.11101 67.328 4.16169 68.64 4.16169C69.9513 4.16169 70.6292 4.8396 70.6292 5.87981V10.8537H67.4639V7.0105C67.4639 6.51311 67.328 6.15123 66.8761 6.1062C66.4241 6.06117 65.2484 7.0105 64.9316 7.46286V14.3358C64.9316 14.9691 65.5644 15.421 66.1073 15.421V16.7326H60.5906V15.376C61.1338 15.376 61.7217 15.195 61.7663 14.3812V6.73867C61.7663 6.5127 61.4048 5.87939 60.5906 5.87939V4.52316H64.6151ZM21.5236 12.9337H18.3583V14.1548C18.3583 14.6518 18.2679 15.6924 16.7757 15.6924C15.2836 15.6924 14.8316 14.6972 14.8316 13.9739V11.3965C14.8316 11.1705 15.0126 10.8537 15.329 10.8537H21.5236V7.55291C21.5236 6.06075 21.2072 5.6084 20.5739 4.97551C19.941 4.34221 17.725 4.16169 16.7303 4.16169C14.1983 4.16169 13.3841 4.52316 12.6607 5.11101C11.9374 5.69887 11.666 6.91961 11.666 7.82391V12.9333C11.666 14.2895 11.9374 15.2392 12.7962 16.0985C13.6551 16.9578 16.2779 16.9578 16.8207 16.9578C17.3632 16.9578 19.1718 17.0028 20.4834 16.0535C21.795 15.1041 21.5236 12.9337 21.5236 12.9337ZM14.8316 7.32694C14.8316 6.60358 15.0576 5.51834 16.6402 5.51834C18.2228 5.51834 18.3583 6.69405 18.3583 7.32694V8.95459C18.3583 9.22559 18.1324 9.497 17.8159 9.497H15.374C15.103 9.497 14.8316 9.27103 14.8316 9.00003V7.32694ZM57.7881 14.3354V7.55291C57.7881 6.51269 57.7426 5.42787 56.657 4.65907C55.5721 3.89027 53.8086 3.93572 53.1302 3.93572C52.4519 3.93572 50.1914 3.93572 49.1507 5.11143C48.1109 6.28714 48.2915 7.41741 48.2915 7.86935H51.2537C51.2537 7.86935 51.4563 6.33217 51.8636 5.92526C52.2731 5.51584 53.3562 5.06599 54.1925 5.78934C54.5002 6.05617 54.6216 6.39971 54.6216 6.78411V8.7282C54.6216 8.90956 54.4406 9.18056 54.2151 9.18056C54.2151 9.18056 50.0997 9.27103 49.3767 9.81386C48.6538 10.3563 48.0201 10.7182 48.0201 12.7077C48.0201 14.6968 48.5174 15.4656 49.1057 15.8729C49.6936 16.2799 49.965 16.7322 52.6324 16.7322H58.9629V15.4206C58.4209 15.4206 57.7881 14.9687 57.7881 14.3354ZM54.6224 15.1042C54.6224 15.2171 54.4414 15.3751 54.3064 15.3751H52.7463C51.6381 15.3751 51.3221 14.4258 51.3221 13.8376V12.0965C51.3221 10.4013 53.0852 10.4463 53.7861 10.4463C54.4869 10.4463 54.6224 11.0338 54.6224 11.4182V15.1042ZM75.0343 2.14963C76.6174 2.14963 77.8998 1.66851 77.8998 1.07482C77.8998 0.481543 76.6174 0 75.0343 0C73.4513 0 72.168 0.481126 72.168 1.07482C72.168 1.6681 73.4513 2.14963 75.0343 2.14963Z" fill="#787771"/>
</svg>
