<svg width="89" height="14" viewBox="0 0 89 14" fill="none" xmlns="http://www.w3.org/2000/svg">
<g clip-path="url(#clip0_10_269)">
<path d="M19.9428 0.314617C21.6168 0.267439 23.5728 0.307963 25.2571 0.315141L29.5632 13.676C28.4217 13.7109 27.1523 13.6836 26.003 13.6809C25.7102 12.9102 25.3349 11.573 25.0817 10.7611L25.0373 10.672C24.8518 10.5762 20.7159 10.6238 20.17 10.6251C19.8479 11.5395 19.4932 12.7449 19.2164 13.6842C18.0448 13.6857 16.8251 13.7042 15.6572 13.6734C15.743 13.3106 15.9602 12.6976 16.0779 12.3312L16.9028 9.7688C17.9014 6.6716 19.0116 3.41843 19.9428 0.314617ZM21.1753 7.56409L22.6303 7.56519L24.02 7.56409C23.8776 7.11139 22.7026 3.3094 22.5805 3.22993C22.1034 4.64248 21.669 6.17541 21.1753 7.56409Z" fill="#7D7975"/>
<path d="M31.8554 0.313995L35.1963 0.314556C35.2395 3.68711 35.1978 7.15433 35.1975 10.5347C37.5521 10.5993 40.1436 10.5356 42.5261 10.5444C42.5376 11.5828 42.5266 12.6423 42.5265 13.6825L31.8535 13.6782L31.8554 0.313995Z" fill="#7D7975"/>
<path d="M44.8839 0.313242C46.1923 0.286799 47.5869 0.310698 48.9009 0.310462L56.187 0.314559L56.1857 3.45103C52.4899 3.50213 48.5832 3.47692 44.8813 3.44845L44.8839 0.313242Z" fill="#7D7975"/>
<path d="M44.8844 10.5451C46.2083 10.5108 47.6689 10.5411 49.0015 10.5408L56.187 10.5461L56.1862 13.6823L44.8813 13.6785L44.8844 10.5451Z" fill="#7D7975"/>
<path d="M44.8701 5.43397C48.6041 5.47514 52.467 5.45486 56.2045 5.43182C56.1936 6.47011 56.2032 7.51905 56.2049 8.55817L44.8701 8.56063V5.43397Z" fill="#7D7975"/>
<path d="M65.2775 0H66.4183C66.9503 0.105699 67.2419 0.10329 67.8399 0.262522C69.5365 0.710037 71.0158 1.7635 72.0043 3.22829C72.9993 4.70922 73.366 6.53155 73.0223 8.28791C72.4474 11.2357 69.9635 13.4617 67.0544 13.8907C66.8674 13.9182 66.5103 13.9507 66.3441 14H65.366C65.2002 13.9519 64.581 13.8792 64.3606 13.837C63.3942 13.6557 62.4747 13.2769 61.6585 12.7235C60.1458 11.6959 59.038 10.1177 58.686 8.2991C58.3398 6.53458 58.7086 4.70334 59.7097 3.21637C60.6912 1.7572 62.164 0.708769 63.8533 0.266459C64.4439 0.108838 64.7455 0.105501 65.2775 0ZM66.0239 10.9778C68.2074 10.881 69.8967 9.00683 69.7904 6.799C69.6841 4.59112 67.8229 2.89165 65.6407 3.00972C63.4728 3.12699 61.8065 4.99383 61.9119 7.1867C62.0173 9.37956 63.8551 11.074 66.0239 10.9778Z" fill="#7D7975"/>
<path d="M88.8699 0.313564V13.682C87.7521 13.6888 86.6339 13.6875 85.516 13.6782L78.8795 5.30356L78.8751 13.6831L75.5256 13.6784C75.4822 11.9929 75.5221 10.1202 75.5221 8.42227L75.5286 0.312044C76.6473 0.307394 77.766 0.308991 78.8851 0.316834L85.5234 8.6895L85.5239 0.311969L88.8699 0.313564Z" fill="#7D7975"/>
<path d="M0 0.308963C1.10414 0.310304 2.24368 0.297295 3.34499 0.313251L3.34906 5.43527L9.99375 5.43908C9.99409 3.76683 9.96042 1.97339 9.99704 0.311941C11.0882 0.311984 12.2559 0.292897 13.3415 0.3137C13.4171 4.70332 13.3508 9.27895 13.3498 13.6831C12.2748 13.6828 11.0622 13.7074 9.9973 13.6793L9.99453 8.55915C7.8108 8.55428 5.52931 8.52523 3.34868 8.55994L3.34786 13.683C2.24145 13.684 1.10392 13.6716 0 13.6864V0.308963Z" fill="#7D7975"/>
</g>
<defs>
<clipPath id="clip0_10_269">
<rect width="88.8696" height="14" fill="white"/>
</clipPath>
</defs>
</svg>
