<svg width="31" height="18" viewBox="0 0 31 18" fill="none" xmlns="http://www.w3.org/2000/svg">
<g clip-path="url(#clip0_10_260)">
<path d="M9.62988 6.46921C10.0588 6.45118 10.5937 6.46645 11.0281 6.46779L13.6321 6.4751L21.3605 6.46905C21.3484 6.89682 21.3442 7.32476 21.3477 7.75266C21.3477 7.96186 21.3378 8.31968 21.3681 8.51561C21.2026 8.50443 20.9605 8.51162 20.787 8.51156L19.7147 8.51144L16.3876 8.51133L12.0507 8.51147C11.2898 8.51153 10.3917 8.49012 9.64128 8.52269C9.65888 8.27086 9.64091 7.79307 9.64302 7.52459C9.64511 7.25981 9.65676 6.70713 9.62988 6.46921Z" fill="#7D7975"/>
<path d="M9.44733 2.67272C10.3782 2.5566 11.2277 3.21552 11.3473 4.14653C11.467 5.07755 10.8119 5.93016 9.88196 6.05358C8.94686 6.17768 8.08905 5.51765 7.9687 4.58146C7.84834 3.64527 8.51128 2.78948 9.44733 2.67272Z" fill="#7D7975"/>
<path d="M21.1176 2.67385C22.0511 2.55472 22.9043 3.21573 23.0227 4.14989C23.1411 5.08406 22.4801 5.93732 21.5464 6.05525C20.6136 6.17308 19.7618 5.51226 19.6436 4.57895C19.5252 3.64562 20.185 2.79287 21.1176 2.67385Z" fill="#7D7975"/>
<path d="M13.3325 2.6735C14.2657 2.55367 15.1192 3.2138 15.2385 4.14767C15.3577 5.08153 14.6976 5.93523 13.7643 6.05407C12.8316 6.17285 11.9793 5.51286 11.8601 4.57969C11.7409 3.64652 12.4 2.79324 13.3325 2.6735Z" fill="#7D7975"/>
<path d="M17.2314 2.67264C18.162 2.55687 19.011 3.21602 19.1299 4.14682C19.249 5.07763 18.5934 5.92952 17.6638 6.05211C16.7292 6.17533 15.8725 5.51515 15.7527 4.5795C15.633 3.64387 16.2959 2.78899 17.2314 2.67264Z" fill="#7D7975"/>
<path d="M5.88238 10.2146L7.77747 10.2174C8.09288 10.217 8.54956 10.2288 8.85606 10.1993C8.60807 10.4871 8.28124 10.7999 8.01025 11.0706L6.60679 12.4684L5.84695 13.2348C5.73668 13.3462 5.4934 13.6021 5.37618 13.6826C5.62917 13.9178 5.87727 14.163 6.12381 14.4052C7.13663 15.4002 8.13072 16.4144 9.14176 17.4112C9.29947 17.5667 9.46727 17.7091 9.62642 17.8624L9.62331 10.1969C9.86815 10.234 10.8331 10.2224 11.1169 10.2179C11.4694 10.2124 12.3348 10.2391 12.656 10.2009C12.6372 11.5907 12.6641 12.992 12.6525 14.3822C12.6482 14.9057 12.6728 15.52 12.654 16.0291L15.8447 16.0278C16.3496 16.0276 16.9972 16.0095 17.4932 16.031C17.4788 16.4552 17.4742 16.8797 17.4796 17.3042C17.4802 17.511 17.4866 17.7234 17.4717 17.9294C17.4695 17.9596 17.4441 17.9814 17.4228 18.0001H5.77541C5.67207 17.934 5.10921 17.3476 4.98194 17.2202L2.98831 15.2229C2.99135 15.2461 2.99367 15.2694 2.99529 15.2927C3.0466 16.0887 2.97642 16.9614 3.00512 17.7645C3.00862 17.8619 3.01376 17.9268 2.94931 18.0001H0V10.2151L1.92598 10.2173C2.19364 10.2171 2.71729 10.2296 2.95931 10.2009C2.94687 11.1151 2.94313 12.1438 2.95945 13.0578C3.10854 12.8854 3.28541 12.7069 3.45191 12.5495C4.10804 11.9294 4.7301 11.2757 5.37987 10.6496C5.51153 10.5228 5.7322 10.3145 5.88238 10.2146Z" fill="#7D7975"/>
<path d="M18.2827 10.2051C18.572 10.2344 19.2279 10.217 19.5464 10.2171L21.9787 10.2167C22.0935 10.2165 23.1412 10.1936 23.1633 10.2498C23.6313 11.4372 23.9993 12.6671 24.4179 13.8732C24.4527 13.9734 24.5314 14.33 24.627 14.3423C24.7558 14.2281 25.8654 10.7281 26.1047 10.2126C27.7322 10.2208 29.3599 10.2204 30.9875 10.2113V17.9998H28.0085C27.9515 17.856 27.9711 13.079 27.9952 12.5806C27.8359 12.8268 27.5754 13.6454 27.4657 13.9581L26.5396 16.5877C26.3852 17.0273 26.2322 17.4838 26.0655 17.9195C26.0522 17.9541 26.0304 17.9791 25.9996 17.9998H23.2406C23.1623 17.8914 22.8575 16.9741 22.7881 16.7732L21.8794 14.2007C21.7206 13.7512 21.5622 13.2945 21.4016 12.8453C21.3867 12.8036 21.3558 12.7573 21.318 12.7323C21.2519 12.7727 21.3103 16.5805 21.2913 16.9129C21.2814 17.085 21.3229 17.8724 21.2642 17.9998H18.2995C18.2716 17.7752 18.2839 17.3497 18.2842 17.1056L18.2851 15.5411L18.2827 10.2051Z" fill="#7D7975"/>
<path d="M14.9384 0H15.9341C15.9339 0.228291 15.9482 0.748709 15.919 0.943381C16.1869 0.914767 16.6223 0.94207 16.9277 0.92272C16.9193 1.23436 16.9051 1.65666 16.9265 1.96103C16.597 1.92739 16.2335 1.9714 15.9218 1.93829C15.9363 2.07664 15.9727 2.77342 15.9005 2.85776C15.7974 2.97809 15.1906 2.91844 14.9654 2.94529C14.9623 2.60807 14.9634 2.27081 14.9687 1.93361C14.7042 1.94106 14.2201 1.93382 13.9825 1.96344L13.98 0.915026C14.2171 0.957008 14.6944 0.922686 14.9685 0.944348C14.9665 0.710585 14.9705 0.224503 14.9384 0Z" fill="#7D7975"/>
</g>
<defs>
<clipPath id="clip0_10_260">
<rect width="30.9873" height="18" fill="white"/>
</clipPath>
</defs>
</svg>
