<svg width="36" height="17" viewBox="0 0 36 17" fill="none" xmlns="http://www.w3.org/2000/svg">
<g clip-path="url(#clip0_10_213)">
<path d="M11.462 0.498615C11.9862 0.435402 12.6862 0.690522 13.072 1.0489C14.3719 2.25634 13.6572 4.43864 12.6254 5.57471C11.7835 6.50169 10.6758 7.18174 9.46816 7.51113C9.30691 7.55514 9.13895 7.58811 8.97456 7.63558C8.88266 7.84674 8.62577 8.90548 8.56078 9.16001C8.20251 10.5631 7.83981 11.6147 7.04401 12.8237C8.68916 13.3075 9.998 13.7024 11.684 14.0258C14.4431 14.5333 17.2386 14.8166 20.0434 14.873C21.6001 14.9009 23.1568 14.8597 24.7113 14.8089C24.9605 14.8007 25.2183 14.8002 25.4659 14.7889C27.8474 14.6732 30.2205 14.4205 32.573 14.0322C33.596 13.8542 34.382 13.6418 35.3709 13.4146C35.4354 13.592 35.5087 13.9002 35.5599 14.0926C35.0718 14.2847 34.2648 14.5082 33.7582 14.6491C32.5852 14.9756 31.3991 15.2535 30.2029 15.4822C29.3826 15.6365 28.6389 15.7421 27.8275 15.8761C26.0158 16.1754 23.7895 16.3657 21.9549 16.4423C21.1706 16.4681 20.3858 16.4796 19.6013 16.4768C18.9304 16.4771 18.185 16.476 17.5137 16.4364C14.7172 16.2498 11.9516 15.741 9.27175 14.9201C8.53355 14.6985 7.80337 14.451 7.08254 14.1781C6.82156 14.0806 6.44669 13.9522 6.20462 13.8374C5.29794 14.7995 3.5983 15.3713 2.29685 15.1208C1.56357 14.9797 0.676958 14.6764 0.230222 14.0417C-0.199078 13.4318 0.000413332 12.6803 0.613545 12.2989C1.85608 11.5133 3.46706 11.912 4.80065 12.1815C4.8544 12.0661 4.91309 11.9495 4.96996 11.8353C5.61075 10.5499 5.87095 9.11622 6.15595 7.72007C5.73592 7.67114 5.31493 7.60293 4.90334 7.5039C4.65882 7.44507 4.40327 7.34076 4.15821 7.29502C4.20353 7.09405 4.33001 6.7657 4.40275 6.56044C5.18677 6.76876 5.48961 6.85803 6.32433 6.86819C6.33638 6.80211 6.35515 6.73888 6.3729 6.67423C6.79351 5.1421 7.20717 3.57585 8.18416 2.28931C8.79753 1.48162 9.60748 0.896594 10.598 0.64261C10.8868 0.56854 11.1676 0.536486 11.462 0.498615ZM9.17156 6.71902C9.50689 6.61483 9.64194 6.59911 9.96724 6.45179C11.4522 5.89248 13.2124 3.79951 12.6293 2.12784C12.4816 1.70451 12.175 1.5538 11.7511 1.57623C11.3146 1.62559 10.9784 1.88219 10.7107 2.21847C9.89007 3.24923 9.5196 5.42394 9.17156 6.71902ZM2.92168 13.9712C3.54585 13.7161 3.56075 13.6254 4.03565 13.2263C3.55617 12.9933 2.58625 12.7679 2.05434 12.8284C1.74268 12.8744 1.36649 12.9045 1.15916 13.1801C0.981241 13.4167 1.12432 13.68 1.3372 13.8356C1.69086 14.094 2.5342 14.1772 2.92168 13.9712Z" fill="#787771"/>
<path d="M13.4923 7.23217C14.1973 7.18972 15.4642 7.42902 15.8794 8.08708C16.3639 8.85515 15.8618 9.71946 15.1511 10.1323C14.2244 10.6706 13.2226 10.91 12.1652 10.6801C12.1299 11.6297 12.6878 11.8158 13.5054 11.8083C14.6785 11.7977 15.8837 11.3227 16.9079 10.7729C16.9866 10.5729 17.0692 10.201 17.1253 9.97794L17.5169 8.40828C17.5856 8.13065 17.6847 7.68659 17.7818 7.42687C18.6019 7.39752 19.4546 7.4453 20.2714 7.41942C20.2204 7.7105 20.1037 8.13563 20.0303 8.43109L19.6048 10.1516C19.4482 10.7802 18.996 11.8321 20.1457 11.5587C20.4905 11.4768 20.739 11.3494 21.0348 11.1606C21.4217 10.917 21.3972 10.9341 21.3934 10.5225C21.3713 8.17083 24.6939 6.46426 26.6338 7.70414C26.5113 8.03524 26.4693 8.39465 26.3326 8.72952C26.0523 8.3839 25.7087 8.17223 25.2393 8.24394C24.3337 8.40832 24.038 9.50207 23.9047 10.2647C23.74 11.2084 24.1087 11.7584 25.1168 11.6307C25.5722 11.5731 26.5655 10.9672 26.8351 10.593C26.9171 9.90218 27.0016 9.43714 27.4192 8.84827C28.0039 8.02377 28.8173 7.48468 29.814 7.31196C30.7262 7.15402 31.28 7.32457 31.9777 7.90712C32.0062 7.73629 32.0357 7.58288 32.0966 7.42053L34.4084 7.42336C34.3615 7.54283 34.3107 7.77905 34.2773 7.91089L34.0585 8.7649C33.8629 9.52721 33.6611 10.2936 33.472 11.0579C33.4202 11.2675 33.4559 11.316 33.5692 11.4904C34.052 11.7559 34.4368 11.5466 34.8564 11.2909C34.9333 11.5275 34.9947 11.769 35.0401 12.0137C34.8829 12.113 34.5384 12.2713 34.3653 12.355C34.0854 12.4887 33.8089 12.6297 33.5242 12.7535C32.6275 13.1434 31.5713 12.9896 31.1728 11.9919C30.8945 12.2322 30.673 12.5097 30.3407 12.6938C29.5139 13.1517 28.3159 13.0693 27.6158 12.4047C27.3536 12.1558 27.2116 11.9259 27.0315 11.6198C26.8251 11.774 26.6444 11.9616 26.4241 12.1215C25.5909 12.7259 24.6018 13.1438 23.5577 12.9783C22.6455 12.8336 22.159 12.5167 21.6209 11.7879C20.3945 12.7679 17.582 13.9203 16.9068 11.749C16.6418 11.8723 16.3693 12.0194 16.1074 12.154C14.4466 13.0084 11.958 13.4554 10.3905 12.1955C9.94755 11.8439 9.66346 11.3299 9.60143 10.7677C9.39362 8.83271 11.3233 7.55321 13.0171 7.29076C13.1746 7.26636 13.3338 7.24915 13.4923 7.23217ZM30.3399 11.7558C31.1691 11.3543 31.194 10.7324 31.4095 9.91369C31.5659 9.31998 31.9119 8.57865 31.1007 8.28548C30.9316 8.22432 30.768 8.24349 30.5893 8.24422C29.7522 8.38708 29.2912 10.3204 29.2932 11.044C29.2948 11.6352 29.7709 11.9412 30.3399 11.7558ZM13.0418 9.94872C13.5115 9.86048 13.9339 9.68752 14.2211 9.28245C14.443 8.96954 14.5562 8.39254 14.1984 8.13507C14.0759 8.04718 13.8126 8.01305 13.6656 8.04735C12.8631 8.16418 12.4492 9.16593 12.2923 9.87788C12.2901 9.88806 12.3038 9.91493 12.3082 9.92364C12.4202 9.99613 12.9088 9.98155 13.0418 9.94872Z" fill="#787771"/>
<path d="M19.5953 4.38474C19.9399 4.3398 20.4593 4.47367 20.7131 4.71965C21.2585 5.24813 20.9472 5.99897 20.2995 6.24271C20.0678 6.32987 19.9046 6.35633 19.6582 6.39802C17.9098 6.53298 17.5651 4.47618 19.5953 4.38474Z" fill="#787771"/>
</g>
<defs>
<clipPath id="clip0_10_213">
<rect width="35.3216" height="16.8198" fill="white" transform="scale(1.01071)"/>
</clipPath>
</defs>
</svg>
