<svg width="123" height="13" viewBox="0 0 123 13" fill="none" xmlns="http://www.w3.org/2000/svg">
<g clip-path="url(#clip0_10_221)">
<path d="M107.065 0.00224937C107.693 -0.00287634 108.321 0.000757415 108.95 0.0131569C108.626 0.741458 108.149 1.64432 107.785 2.36846L110.523 2.38296C110.318 2.772 110.109 3.15941 109.897 3.54516C108.999 4.12078 108.139 3.68439 107.21 3.98934C106.736 4.14483 104.465 9.06742 104.063 9.88567C106.278 9.88728 108.771 9.9442 110.963 9.86425C111.839 9.26158 113.079 6.11065 113.68 5.00339C114.548 4.99695 115.422 5.00641 116.291 5.01033C115.512 6.63911 114.683 8.25715 113.897 9.88593L120.274 9.87866C120.668 9.87834 122.7 9.85101 122.97 9.92381C123.032 10.0588 123.056 10.0628 123.02 10.2176C122.744 11.4012 121.608 11.5094 120.597 11.5003C119.942 11.4944 119.344 11.5015 118.723 11.5017L113.876 11.5016C109.708 11.5003 105.485 11.5492 101.32 11.4527C101.317 11.4526 101.188 11.3598 101.174 11.3488C101.105 11.2948 101.035 11.2249 100.972 11.1636C100.594 11.4487 100.418 11.5197 99.9467 11.5101C99.112 11.493 98.2755 11.4984 97.4408 11.4988L91.3529 11.5013L88.3465 11.5011C87.9019 11.501 87.3846 11.5187 86.9458 11.4774C86.7094 11.4552 86.6329 11.3091 86.5198 11.1466C86.4125 11.2171 85.9833 11.4955 85.8766 11.4952C83.7492 11.4973 81.6083 11.5507 79.4835 11.469C79.2438 11.4598 78.7735 11.3225 78.5512 11.2253C77.7024 10.8546 77.4994 9.89667 77.6099 9.05552C77.8014 7.59364 78.9393 6.73738 80.0181 5.90608C75.6907 5.90698 76.2946 5.40045 74.1377 9.50976C73.8697 10.0193 73.5382 10.706 73.0794 11.0643C72.7717 11.3196 72.3726 11.4444 71.9769 11.4676C70.9173 11.5296 69.8315 11.5042 68.7694 11.5039L62.8671 11.5011L58.3916 11.4983C57.7588 11.4981 57.0895 11.52 56.4591 11.4993C56.2017 11.4908 56.1246 11.3709 55.9922 11.205C55.7341 11.1356 55.5888 11.4559 55.4229 11.4591C52.3649 11.519 47.8376 11.5441 44.8969 11.4856C45.9835 9.17129 46.6208 10.4844 48.4126 9.45812C48.6763 9.28544 49.0072 8.95185 49.0412 8.62C49.2363 6.71866 47.2672 6.15246 45.8836 5.89032C45.2323 7.03772 44.6457 8.20493 43.965 9.33946C42.4188 11.9163 39.2581 11.5027 36.6279 11.5033L30.7005 11.5018C29.6187 11.5015 28.4545 11.5112 27.3653 11.5107C27.233 11.5107 26.8891 11.2748 26.7626 11.1913C26.7004 11.2279 26.2689 11.4776 26.2169 11.4788C23.8289 11.5325 21.4267 11.5144 19.0342 11.4848C18.7392 11.5183 17.6338 11.2474 17.6627 10.8135C17.7275 9.84033 18.9146 7.95237 19.3687 7.121L22.2041 1.92299C20.9985 1.92209 19.6494 1.89423 18.4564 1.95333C16.7569 4.95386 14.8407 8.45407 13.2477 11.5044C12.36 11.5074 11.4724 11.5015 10.5848 11.4865C10.9974 10.5476 11.8626 9.07463 12.3912 8.10743L15.7706 1.93087C15.0469 1.86802 12.7692 1.92671 12.0031 1.94135C11.5648 2.85424 10.9313 3.94529 10.4385 4.84633C9.66242 6.27825 8.87745 7.70535 8.08373 9.12755C7.74075 9.8948 7.16087 10.6939 6.82836 11.5064C5.92497 11.511 5.02158 11.5035 4.11844 11.4838C5.78927 8.3014 7.69263 5.09645 9.32034 1.90993L0 1.90057C0.348706 1.34346 0.878778 0.641767 1.53 0.508942C3.05043 0.19884 5.15837 0.318854 6.68013 0.318416L13.7842 0.317966L20.7271 0.319702C21.6727 0.320043 23.8389 0.247293 24.8484 0.416081C25.0893 0.456354 25.3422 1.02709 25.1664 1.37573C23.7185 4.2475 22.0402 7.02608 20.5655 9.88483C22.1659 9.88683 25.0133 9.97198 26.5299 9.85126C27.6535 9.02961 28.2878 6.06113 29.9254 5.13021C31.2242 4.39189 31.9938 4.3609 33.4779 4.34228C33.9001 4.33699 34.3386 4.28946 34.7503 4.37364C34.9282 4.45908 34.971 4.60409 35.0498 4.78228C35.1716 4.70729 35.6794 4.38688 35.7577 4.37669C36.4338 4.28866 37.4606 4.33985 38.1447 4.35001C37.1301 6.18802 36.129 8.03353 35.1418 9.88651C42.2374 9.89905 40.6874 10.3507 44.1338 4.34623C46.1369 4.34669 47.7506 4.18085 49.5266 5.2989C51.487 6.53299 51.8606 7.9781 50.7123 9.89268C51.5612 9.88458 55.0038 10.0447 55.6009 9.67498C56.6857 9.00317 57.0717 6.10583 58.0893 5.13439C58.8264 4.43065 59.5327 4.39285 60.5167 4.35333C61.9843 4.34877 63.5045 4.34874 64.9662 4.35669C66.5218 4.36515 68.5856 4.26039 67.5094 6.50946C67.075 7.41652 66.9639 8.30101 65.7431 8.47697C64.9907 8.58534 64.2434 8.54077 63.4891 8.53845C62.2162 8.52816 60.9434 8.52874 59.6704 8.54012C59.5314 8.99134 59.3889 9.44153 59.2429 9.89056L67.0384 9.89577C67.7741 9.89628 70.8023 10.0928 71.1968 9.51407C72.1047 8.18332 72.8025 6.52701 73.6468 5.13034C73.8267 4.83238 74.1595 4.47644 74.536 4.4224C77.0991 4.26335 79.7161 4.36782 82.2888 4.36357C82.707 4.36288 83.5841 4.4689 83.6747 4.95727C83.4697 5.81932 81.2729 6.79809 80.5713 7.62438C79.6595 8.69878 79.9024 9.84348 81.3911 9.88052C82.9718 9.91982 84.6912 9.94092 86.2615 9.85686C87.3474 9.0626 87.9539 6.3627 89.379 5.33041C90.898 4.23005 92.575 4.28563 94.394 4.36277C94.597 4.37137 94.7056 4.62223 94.829 4.78935L95.386 4.37164C96.1526 4.31758 97.1054 4.34659 97.8861 4.35061C96.8812 6.10725 95.8255 8.09843 94.8759 9.88683C96.8324 9.88805 99.15 9.94593 101.078 9.86078C101.661 9.46404 102.176 8.20589 102.499 7.55061C103.096 6.32944 103.701 5.11291 104.315 3.90104C103.828 3.90021 103.341 3.89511 102.854 3.88575C103.15 3.34436 103.348 2.94717 103.594 2.38164C103.999 2.35579 104.631 2.37352 105.054 2.37184C105.416 1.68021 105.751 0.868314 106.193 0.256966C106.565 0.0925249 106.663 0.0556995 107.065 0.00224937ZM32.7579 5.9136C32.1281 6.01856 31.7031 6.25491 31.3601 6.81777C30.7847 7.7622 30.1874 8.90285 29.6792 9.88689L31.6078 9.87885C32.1999 9.76007 32.6079 9.45375 32.9096 8.92973C33.4369 8.01385 34.0935 6.84716 34.545 5.90099C33.9971 5.90273 33.2931 5.88453 32.7579 5.9136ZM89.4137 9.88638L91.3535 9.87847C91.9588 9.75164 92.3687 9.41902 92.6681 8.88059C93.143 8.02607 93.8934 6.77327 94.2783 5.90093C93.7482 5.90241 93.0582 5.88382 92.5409 5.91135C91.9479 5.9927 91.509 6.18693 91.1723 6.70696C90.5504 7.6692 89.9548 8.8694 89.4137 9.88638ZM60.8348 5.93457C60.376 6.38803 60.3439 6.57004 60.1409 7.17085L63.3072 7.17091C64.4182 7.09547 64.4708 6.78401 64.7831 5.79044C63.8604 5.78948 62.7688 5.75944 61.8603 5.79154C61.4722 5.82195 61.2177 5.83688 60.8348 5.93457Z" fill="#787771"/>
<path d="M115.698 2.50478C116.194 2.46669 116.955 2.49114 117.47 2.4927C117.228 3.01317 116.975 3.52835 116.712 4.03788L116.007 4.03749C115.371 4.03868 114.734 4.03546 114.098 4.02784C114.506 3.15969 114.699 2.71821 115.698 2.50478Z" fill="#787771"/>
</g>
<defs>
<clipPath id="clip0_10_221">
<rect width="122.544" height="12.0141" fill="white" transform="scale(1.00372)"/>
</clipPath>
</defs>
</svg>
