<svg width="104" height="14" viewBox="0 0 104 14" fill="none" xmlns="http://www.w3.org/2000/svg">
<g clip-path="url(#clip0_10_278)">
<path d="M64.7704 -0.0199062L67.0371 -0.0165789L65.5949 8.25614C66.0113 7.84145 66.5423 7.06136 66.9109 6.55753L68.4898 4.44294L70.8733 1.23489C71.1607 0.844402 71.5621 0.366617 71.8134 -0.0211356L73.7204 -0.0193772L72.7881 5.28123C72.614 6.26258 72.4711 7.25316 72.2699 8.22838C73.2818 6.99721 74.2219 5.68313 75.1882 4.41373C76.309 2.94219 77.4393 1.4756 78.5262 -0.0207908C79.468 -0.025793 80.4093 -0.0219758 81.3511 -0.00933973L78.718 3.54523C78.2521 4.06603 77.4593 5.22554 76.9929 5.85144L73.1656 10.9808C72.4917 11.884 71.7523 12.9691 71.0228 13.8012L69.1009 13.8039C69.4734 11.143 69.8959 8.48956 70.369 5.84482C69.9526 6.2771 69.2749 7.27263 68.8885 7.80072L65.8456 11.9657C65.4137 12.5518 64.9566 13.2542 64.493 13.7938C63.7963 13.8137 63.038 13.8019 62.3369 13.805L63.4883 7.24025C63.8892 4.85819 64.27 2.32585 64.7704 -0.0199062Z" fill="#787771"/>
<path d="M10.2279 -0.0205594L12.2858 -0.0158079C11.857 2.5861 11.4641 5.19211 10.9503 7.77787C11.3193 7.44224 12.3347 5.97048 12.7032 5.48579C14.0809 3.6735 15.4113 1.78237 16.7997 -0.0209045L18.8508 -0.0169986C18.0046 4.51557 17.407 9.30199 16.5179 13.8007L14.2816 13.8058C14.6658 11.0816 15.2107 8.29967 15.689 5.588C14.8446 6.59138 13.8099 8.01368 13.0295 9.0816L10.913 11.8692C10.4531 12.4872 9.92828 13.2555 9.40233 13.8009L7.68955 13.8033C7.84305 13.0366 7.91266 12.224 8.07039 11.4604C8.47842 9.48544 8.71754 7.46478 9.1035 5.48929C8.83391 5.92252 8.43794 6.40453 8.12438 6.82207L6.24486 9.31318C5.22688 10.6594 3.89183 12.5616 2.85667 13.8003L0.046875 13.8076C2.99321 9.69488 6.08107 5.66607 9.05096 1.56887C9.43652 1.03688 9.85995 0.520523 10.2279 -0.0205594Z" fill="#787771"/>
<path d="M55.0766 0.00228918C55.9355 -0.0696104 56.4543 -0.0423462 57.2871 0.148553C55.3974 0.965221 53.6299 1.80646 53.03 4.02398C52.8104 4.83618 52.9339 5.81424 53.3764 6.53374C52.747 4.21762 53.4959 2.67474 55.5814 1.48875C56.5983 0.910581 57.6146 0.782773 58.7476 0.631246C59.5204 0.932671 59.9446 1.31003 60.5529 1.84697C58.384 1.53059 55.2217 1.55591 54.1036 3.89239C53.9907 4.12809 53.7978 4.81687 53.8923 5.05546C53.9685 4.76896 54.0697 4.48981 54.1948 4.22118C55.3557 1.77964 58.8288 1.83868 61.0505 2.59284C61.6654 2.8016 62.1641 4.03255 62.3648 4.60532C60.5568 2.86693 56.4153 1.94835 54.8998 4.58563C56.7211 2.71714 59.0723 2.9268 61.0755 4.44191C61.7443 4.94802 62.1896 5.29244 62.685 5.99224C62.7951 6.88372 62.7501 7.46651 62.5911 8.34152C62.4587 8.04217 62.3648 7.72435 62.2225 7.42322C61.2651 5.4045 59.5338 3.78684 57.1948 4.01213C57.3549 4.11707 57.4572 4.12475 57.6463 4.15769C60.673 4.67794 61.8616 6.95149 62.1235 9.81378C61.8727 10.4002 61.1639 11.3391 60.7258 11.8271C61.0482 10.066 61.2795 8.18383 60.1926 6.61124C59.4315 5.50988 58.6459 5.07321 57.3772 4.78744C57.7786 5.03092 58.1939 5.18939 58.6042 5.45135C59.5043 6.02646 60.2015 7.06912 60.4667 8.09303C60.8286 9.48823 60.3071 11.4625 59.6105 12.7036C58.965 13.1092 58.2562 13.4038 57.5139 13.5748C59.422 11.6037 60.837 8.60259 58.4919 6.34734C58.4191 6.27723 58.3451 6.2079 58.2706 6.13924C59.0879 7.35161 59.5594 8.22601 59.2886 9.7765C59.039 11.2033 57.5295 12.9247 56.3481 13.7199C56.3264 13.7347 56.3041 13.7491 56.2814 13.763C55.5024 13.7978 54.7224 13.7186 53.9663 13.5281C55.9211 12.8792 57.6729 11.6648 58.3051 9.61075C58.2462 9.49524 58.2361 9.46569 58.1227 9.40721C57.45 11.7362 55.0843 12.9111 52.8121 13.0983C52.275 12.8427 51.6301 12.3294 51.1447 11.9643C53.8228 12.1638 56.6889 11.6669 57.6118 8.7714C57.0453 9.64452 56.5693 10.4319 55.5903 10.8763C53.6922 11.738 52.1405 11.5545 50.2585 10.908C49.7876 10.3301 49.5276 9.60825 49.2617 8.92097C50.39 9.81518 51.4172 10.4812 52.896 10.5607C54.2543 10.6337 55.3412 10.2744 56.3575 9.37027C55.2773 9.8026 54.6418 10.2539 53.3931 10.2221C51.2937 10.1687 50.3034 9.12995 48.9757 7.77376C48.9308 7.13783 48.9474 6.5442 48.9931 5.91094C49.4008 6.68664 49.7532 7.282 50.3694 7.88776C51.4678 8.96748 52.6459 9.59411 54.2131 9.51143C54.3393 9.50481 54.7313 9.50509 54.8225 9.41089C53.377 9.34629 52.6253 9.26984 51.4405 8.32038C50.0711 7.22335 49.6488 5.97004 49.4839 4.25428C49.7511 3.59666 50.0823 3.09667 50.4711 2.51372C50.4278 5.65499 50.8112 7.91442 54.1915 8.80445C53.9635 8.64565 53.4693 8.39616 53.2024 8.23925C52.1816 7.63916 51.589 7.03695 51.1914 5.90532C50.7722 4.71277 50.8145 3.03608 51.3088 1.88041C51.629 1.13048 53.0072 0.576857 53.7356 0.333883C52.5391 1.58501 51.5767 3.08203 51.8508 4.91218C52.0276 6.09384 52.4796 6.97786 53.4448 7.69964L53.4309 7.68072C51.2048 4.68317 52.2617 2.08962 55.0766 0.00228918Z" fill="#787771"/>
<path d="M34.7623 1.2373L37.085 1.25311C36.9774 2.66734 36.4859 4.89794 36.2243 6.35357C35.7864 8.79093 35.4529 11.374 34.9716 13.7855C34.2758 13.7823 33.5823 13.8117 32.8853 13.7975C32.536 13.7905 32.6319 13.5398 32.5042 13.5942C31.3072 14.1044 30.146 14.0883 28.9364 13.6324C27.64 13.0421 27.0001 11.7208 26.8708 10.3584C26.6048 7.55464 28.3113 4.02799 31.4024 3.75668C32.3946 3.6696 33.4156 3.8106 34.2028 4.45943C34.4266 3.43001 34.5313 2.28186 34.7623 1.2373Z" fill="#787771"/>
<path d="M31.4437 6.28276C33.5764 6.19769 34.1453 7.74902 33.4072 9.51568C32.9628 10.5794 32.4435 11.0574 31.3787 11.4921C28.0658 11.8696 28.7938 7.50793 30.8282 6.48229C31.0026 6.39432 31.2527 6.33356 31.4437 6.28276Z" fill="#F7F7F4"/>
<path d="M100.795 1.22604L103.154 1.22988C102.942 2.92955 102.58 4.6571 102.278 6.34581C101.839 8.80415 101.501 11.3463 101.01 13.7883C100.699 13.7893 98.9007 13.8186 98.7078 13.7582L98.6528 13.6053C98.4821 13.5665 98.0768 13.7902 97.8461 13.8396C96.8053 14.0619 95.958 14.0044 94.9867 13.6221C90.8847 11.6586 93.3288 3.43656 97.905 3.72817C98.7684 3.7832 99.5974 3.82872 100.25 4.47221C100.453 3.61389 100.665 2.11085 100.795 1.22604Z" fill="#787771"/>
<path d="M97.4213 6.28785C100.357 6.09216 100.181 8.91674 98.829 10.5784C98.4626 11.029 98.019 11.2434 97.4963 11.4548C97.1127 11.5708 96.4244 11.515 96.0858 11.3187C94.3045 10.2856 95.3408 7.33986 96.8053 6.5147C96.9621 6.42651 97.2467 6.34249 97.4213 6.28785Z" fill="#F7F7F4"/>
<path d="M43.2092 3.78623C44.0345 3.7283 44.781 3.74377 45.5568 4.07673C45.7863 4.17527 45.9716 4.40868 46.1497 4.4167C46.2188 4.32839 46.2384 4.21166 46.2664 4.10188C46.3987 4.00345 48.276 4.04562 48.591 4.04663C48.4994 4.85409 48.2882 5.93987 48.1526 6.75797L46.9381 13.8025C46.2138 13.7875 45.3792 13.8728 44.6605 13.7732C44.597 13.7644 44.5603 13.6709 44.5177 13.6019C44.2023 13.7278 43.8932 13.8409 43.5693 13.8973C38.5197 14.7784 37.7438 9.08789 40.0438 5.82036C40.9153 4.58212 41.8111 4.06243 43.2092 3.78623Z" fill="#787771"/>
<path d="M43.4281 6.29172C46.834 6.01162 46.022 10.7609 43.3029 11.5042C40.061 11.9512 40.5794 6.98356 43.4281 6.29172Z" fill="#F7F7F4"/>
<path d="M81.2836 3.73903C82.1209 3.66175 83.1923 4.03143 83.8667 4.52324C86.0539 6.11936 85.4001 10.0218 84.0051 11.9241C83.0394 13.2411 81.9541 13.7301 80.388 13.9536C77.9278 14.0746 76.4867 12.8985 76.2388 10.4035C76.0542 8.64954 76.5724 6.89406 77.6798 5.52217C78.6267 4.36978 79.8426 3.88192 81.2836 3.73903Z" fill="#787771"/>
<path d="M80.8052 6.28238C84.0359 6.11757 83.3938 9.79006 81.5579 11.0945C81.3155 11.2668 81.0214 11.3782 80.7468 11.4896C78.2488 11.8329 78.0164 9.23081 79.0266 7.64325C79.5403 6.8354 79.88 6.53132 80.8052 6.28238Z" fill="#F7F7F4"/>
<path d="M22.0689 3.7885C25.1945 3.39968 26.7433 5.66088 26.6079 8.54276C26.5849 9.02951 26.5091 9.47931 26.4294 9.95699L19.9523 9.96167C20.4385 12.0704 22.3161 11.9134 23.544 10.5937C24.4277 10.6001 25.3114 10.5964 26.1949 10.5825C24.275 15.3258 17.6524 15.2341 17.6572 9.68836C17.6596 7.02503 19.2941 4.24208 22.0689 3.7885Z" fill="#787771"/>
<path d="M22.21 6.28676C23.3993 6.23285 23.9208 6.35759 24.3311 7.55733L22.6923 7.55772L20.4917 7.5536C20.503 7.53502 20.5146 7.5166 20.5264 7.49829C20.9771 6.79989 21.396 6.4607 22.21 6.28676Z" fill="#F7F7F4"/>
<path d="M91.6115 1.04752L93.9087 1.04852C93.8231 2.07938 93.4567 3.94598 93.2749 5.0238L91.7432 13.7876L89.3564 13.7871L91.0294 4.24132C91.2212 3.1542 91.4386 2.15038 91.6115 1.04752Z" fill="#787771"/>
<path d="M89.6609 3.90142C89.935 3.86692 90.4248 3.87999 90.7173 3.88016L90.357 6.26895C87.983 6.19389 88.1042 7.74361 87.7751 9.54577C87.5216 10.9351 87.3603 12.4216 87.0507 13.7934L85.7953 13.7931L84.6895 13.7957C84.9458 12.2193 85.2115 10.6446 85.4878 9.0716C85.783 7.4817 86.1678 5.64121 86.3496 4.04586C87.5121 4.05538 88.5229 4.13594 89.6609 3.90142Z" fill="#787771"/>
<path d="M37.0148 4.0472L39.369 4.04648C39.3168 4.63238 38.9646 6.31592 38.8488 6.99763C38.4674 9.24203 38.1391 11.5918 37.6458 13.805L35.3389 13.8019C35.8266 10.5554 36.4578 7.29003 37.0148 4.0472Z" fill="#787771"/>
<path d="M37.5904 1.23972C38.3329 1.24005 39.0754 1.24467 39.8178 1.25363C39.7554 1.6247 39.5766 2.84452 39.4673 3.12106L39.3552 3.158L37.084 3.16C37.1911 2.58262 37.3036 1.87775 37.4669 1.31555C37.4796 1.27188 37.5362 1.26253 37.5904 1.23972Z" fill="#787771"/>
</g>
<defs>
<clipPath id="clip0_10_278">
<rect width="103.196" height="14" fill="white"/>
</clipPath>
</defs>
</svg>
