<svg width="49" height="15" viewBox="0 0 49 15" fill="none" xmlns="http://www.w3.org/2000/svg">
<g clip-path="url(#clip0_10_224)">
<path d="M20.7251 4.72689C23.4156 4.72698 25.599 6.91591 25.5992 9.60107C25.5992 12.2863 23.4107 14.4751 20.7251 14.4752C18.0395 14.4752 15.8499 12.2864 15.8499 9.60107C15.8501 6.91585 18.0345 4.72689 20.7251 4.72689ZM44.3841 4.71707C45.6153 4.71715 46.7704 5.20906 47.6469 6.09567C48.5183 6.98221 48.9999 8.14711 49 9.38308V10.4524H41.9106C42.2248 11.5771 43.2485 12.3679 44.4341 12.3681C45.3613 12.3681 46.1974 11.8967 46.6788 11.1014L46.775 10.9443L48.7005 11.8919L48.5896 12.0794C47.7129 13.5537 46.1065 14.4703 44.3939 14.4703H44.389C43.0816 14.4703 41.855 13.9535 40.9278 13.0161C40.0006 12.0788 39.4986 10.8423 39.5138 9.53528C39.5291 8.25351 40.0367 7.05261 40.9386 6.14574C41.8404 5.23901 43.0464 4.73227 44.3232 4.71707H44.3841ZM29.1871 14.2877H26.8561V0.227802H29.1871V14.2877ZM33.646 14.2877H31.3159V0.227802H33.646V14.2877ZM38.1058 14.2828H35.7747V4.96058H38.1058V14.2828ZM10.3984 4.71707C10.5247 4.71708 10.6461 4.72268 10.7725 4.73278C11.8366 4.82398 12.8152 5.31479 13.5297 6.1153C14.2441 6.91078 14.6392 7.93995 14.6392 9.00898V14.2779H12.3082V8.94319C12.3031 7.89436 11.4366 7.03731 10.3827 7.03731C10.3219 7.03732 10.2561 7.04305 10.1902 7.04811C9.2478 7.14438 8.45731 8.03567 8.45715 8.99818V14.2779H6.1261V8.95792C6.12102 7.90404 5.25947 7.0432 4.2055 7.0432C4.14477 7.04322 4.07881 7.04796 4.01305 7.05302C3.0757 7.1494 2.27998 8.04135 2.27998 9.00898V14.2779H0V8.94319C0 6.61255 1.90016 4.71712 4.23103 4.71707C5.39649 4.71707 6.50671 5.20337 7.30734 6.04952C8.10796 5.19848 9.22294 4.71707 10.3984 4.71707ZM20.7251 7.0432C19.3113 7.0432 18.1613 8.19334 18.1613 9.60696C18.1615 11.0204 19.3114 12.1707 20.7251 12.1707C22.1386 12.1706 23.2886 11.0203 23.2888 9.60696C23.2888 8.1934 22.1388 7.0433 20.7251 7.0432ZM44.2927 6.83504C43.2287 6.83504 42.2754 7.5339 41.946 8.52686H46.6434C46.3088 7.53409 45.3567 6.83514 44.2927 6.83504ZM36.9402 0C37.7797 0.000136748 38.4602 0.680606 38.4602 1.51999C38.4602 2.35939 37.7797 3.03984 36.9402 3.03998C36.1007 3.03998 35.4203 2.35947 35.4203 1.51999C35.4203 0.680522 36.1007 0 36.9402 0Z" fill="#787771"/>
</g>
<defs>
<clipPath id="clip0_10_224">
<rect width="48.7334" height="14.417" fill="white" transform="scale(1.00547)"/>
</clipPath>
</defs>
</svg>
