<svg width="71" height="17" viewBox="0 0 71 17" fill="none" xmlns="http://www.w3.org/2000/svg">
<g clip-path="url(#clip0_10_315)">
<path d="M4.71627 0.606922C5.00949 0.577372 5.34963 0.571055 5.6175 0.712329C6.58651 1.20604 7.57303 1.86285 8.52323 2.37069C10.2455 3.29121 10.2086 3.56309 10.1852 5.38501L8.255 6.48593C8.30517 5.83756 8.24702 5.10808 8.28922 4.43043C7.28635 3.88292 5.98408 3.13012 5.01402 2.52896C3.94139 3.17419 2.85933 3.80357 1.76819 4.41681C1.83956 5.18154 1.8608 7.4674 1.76022 8.19292C2.16848 8.40204 2.84044 8.82681 3.25508 9.05387C3.60206 9.24388 4.73445 9.88456 4.99901 10.1211C5.44372 9.79187 6.3728 9.2812 6.87851 8.9899L9.58871 7.41454C10.3876 6.95418 12.3451 5.69817 13.1023 5.46923C13.4774 5.35582 14.0207 5.58303 14.3474 5.75731C14.8378 6.01886 15.3101 6.32362 15.7943 6.59781C16.4886 6.99095 17.3842 7.411 17.985 7.9276C18.1987 8.11137 18.3711 8.31112 18.4532 8.58558C18.6065 9.09837 18.6053 12.5816 18.5357 13.2705C18.51 13.5252 18.4499 13.85 18.3243 14.0762C18.2146 14.2736 17.9666 14.4519 17.7854 14.578C17.2245 14.9681 16.5903 15.291 15.9986 15.6334C15.3588 16.0037 14.38 16.671 13.7001 16.8716C13.4024 16.9423 13.147 16.9354 12.867 16.7964C12.013 16.3723 11.2039 15.8591 10.3733 15.3873C9.80285 15.0435 9.0826 14.7129 8.60394 14.2477C8.15145 13.8079 8.25645 12.6839 8.26075 12.0895C8.68188 11.7929 9.67021 11.253 10.1402 10.9886C10.1173 11.645 10.1341 12.4049 10.133 13.0691C10.5117 13.2512 11.2209 13.6864 11.6024 13.9084C12.0944 14.1946 12.9353 14.6503 13.3743 14.9735C14.0008 14.5826 14.6349 14.2042 15.2763 13.8386C15.7026 13.5903 16.2326 13.2636 16.6714 13.0616C16.5853 12.1966 16.6416 10.2281 16.6439 9.28748C16.1654 9.04672 15.4961 8.6273 15.0172 8.35232C14.5954 8.11015 13.7446 7.64854 13.3967 7.38141C11.8213 8.38128 10.1053 9.28316 8.49789 10.2484C7.51215 10.8403 6.34425 11.5561 5.29934 12.0037C4.35712 12.186 3.06764 11.07 2.22671 10.6579C1.64802 10.3744 0.046165 9.50041 -0.0202759 8.9412C-0.207359 7.36662 -0.0732643 5.71571 -0.09751 4.11947C-0.105331 3.60661 0.167862 3.1942 0.605301 2.91232C1.7703 2.35111 3.53926 0.969958 4.71627 0.606922Z" fill="#7D7975"/>
<path d="M50.7099 5.39631C51.7498 5.33996 52.2343 5.41793 53.0266 6.10111C53.018 5.90772 53.025 5.66724 53.0258 5.46997C53.6296 5.47205 54.2334 5.47103 54.8372 5.46703L54.8407 10.3565C54.8407 11.28 54.8931 12.3025 54.7535 13.2174C54.7062 13.5291 54.4696 13.8884 54.2533 14.1139C53.4419 14.96 52.2581 14.8175 51.1925 14.8135C50.4632 14.8094 49.7342 14.8104 49.0053 14.8164V13.95L49.01 13.3802C50.033 13.354 51.1866 13.4209 52.2018 13.3427C53.095 13.2739 53.0426 12.1633 53.0356 11.4781C51.4267 13.1585 48.391 11.9631 48.1481 9.62736C47.935 7.57868 48.4375 5.75927 50.7099 5.39631ZM51.862 10.6008C52.7102 10.3921 53.1196 9.69242 53.1161 8.85463C53.1114 7.58245 52.4545 6.8959 51.2023 6.96653C49.166 7.50612 49.5274 10.978 51.862 10.6008Z" fill="#7D7975"/>
<path d="M26.4722 5.39529C27.4081 5.3584 28.2854 5.45376 28.943 6.12878C30.8591 8.09571 29.9923 12.2454 26.8529 12.2403C26.0159 12.239 25.5748 12.0946 24.9901 11.5452L24.991 13.1748L24.989 14.812C24.4468 14.7994 23.6812 14.7932 23.1465 14.8266L23.1506 5.46581L24.9881 5.46196C24.9833 5.69416 24.9922 5.95681 24.9945 6.19156C25.4409 5.67419 25.8173 5.51368 26.4722 5.39529ZM26.8121 10.6105C28.5856 10.2329 28.5702 7.38007 26.852 6.98333C26.6856 6.94491 26.4205 6.95692 26.2456 6.96716C26.0135 7.02347 25.8217 7.07626 25.6227 7.21376C24.6408 7.89192 24.6456 9.80528 25.6946 10.4215C26.0409 10.625 26.4195 10.6647 26.8121 10.6105Z" fill="#7D7975"/>
<path d="M58.9041 5.34594C60.8078 5.04408 62.5949 6.34938 62.8933 8.26019C63.1921 10.171 61.889 11.9625 59.9846 12.2599C58.0833 12.5569 56.3016 11.2521 56.0036 9.34443C55.7052 7.43676 57.0035 5.64733 58.9041 5.34594ZM59.8024 10.601C60.8789 10.368 61.2665 9.24024 61.0361 8.26153C60.7964 7.244 60.0855 6.9153 59.1329 6.96793C57.0047 7.61461 57.5248 10.9602 59.8024 10.601Z" fill="#7D7975"/>
<path d="M33.5391 5.34589C35.4524 5.04403 37.2446 6.36495 37.5297 8.28749C37.8147 10.2101 36.4836 11.9973 34.5654 12.2676C32.6695 12.5348 30.9135 11.2179 30.6317 9.31754C30.3499 7.41717 31.6477 5.64425 33.5391 5.34589ZM34.4192 10.6046C36.064 10.2451 36.1836 7.75328 34.7414 7.08647C34.4227 6.93927 34.1322 6.94978 33.7919 6.96693C31.6814 7.53427 32.091 10.9321 34.4192 10.6046Z" fill="#7D7975"/>
<path d="M67.371 5.3946C68.1969 5.35587 68.9129 5.41238 69.537 6.03716C70.4255 6.92613 70.2797 8.23496 70.2781 9.39223L70.2679 12.1621C69.6501 12.1524 69.0322 12.1531 68.4143 12.1641C68.4479 11.3702 68.4198 10.5296 68.4292 9.72972C68.4014 9.20237 68.4765 8.61659 68.3944 8.09502C68.2305 7.05622 67.116 6.75691 66.3323 7.28473C66.3147 7.30043 66.2975 7.31664 66.2807 7.33335C65.6366 7.97403 65.7817 9.02911 65.7848 9.88351C65.7895 10.644 65.7891 11.4046 65.7844 12.165C65.2815 12.1302 64.4728 12.1547 63.9609 12.1694C63.9515 9.94814 63.9418 7.6894 63.9652 5.46991L65.7872 5.46834L65.7813 6.34235C66.2596 5.7448 66.6283 5.5292 67.371 5.3946Z" fill="#7D7975"/>
<path d="M45.9931 5.47511C46.5961 5.44803 47.246 5.49367 47.8748 5.46636C47.4114 6.93777 46.7803 8.42311 46.2914 9.89738C45.945 10.8219 45.6086 11.7502 45.2825 12.6821C45.087 13.2541 44.7604 14.3062 44.5148 14.8136C43.9611 14.7984 43.353 14.8071 42.7954 14.8051C43.0304 13.997 43.4668 12.8673 43.7628 12.0558C43.6072 11.7295 43.0918 10.315 42.9854 9.96857C42.7965 9.35175 41.3527 5.70319 41.4001 5.48288C42.0054 5.46169 42.6323 5.47267 43.2396 5.47534C43.5931 6.81227 44.2216 8.37033 44.6103 9.76364C45.0866 8.35463 45.5293 6.89519 45.9931 5.47511Z" fill="#7D7975"/>
<path d="M38.6856 2.59343C39.2983 2.59704 39.9115 2.59704 40.5247 2.59335L40.5239 9.28234C40.5235 9.85862 40.574 11.6913 40.5051 12.1584C39.9197 12.1369 39.2725 12.159 38.6836 12.1712L38.6856 2.59343Z" fill="#7D7975"/>
</g>
<defs>
<clipPath id="clip0_10_315">
<rect width="70.2667" height="17" fill="white"/>
</clipPath>
</defs>
</svg>
