<svg width="92" height="17" viewBox="0 0 92 17" fill="none" xmlns="http://www.w3.org/2000/svg">
<g clip-path="url(#clip0_10_324)">
<path d="M11.5478 2.24322C12.0272 1.7516 12.3656 1.48494 12.9757 1.17883C14.4431 0.442476 14.6554 0.979965 14.6434 2.42008C14.6367 3.22473 14.4993 3.82449 14.3167 4.59398C14.4839 4.80663 14.6347 5.07455 14.7714 5.3117C15.6019 6.73354 15.9484 8.38967 15.7582 10.0281C15.7065 10.4808 15.5929 10.8166 15.481 11.2483C15.0821 12.8021 14.0934 14.1853 12.8503 15.1723C11.9873 15.8575 10.9824 16.3419 9.92424 16.6349C9.6789 16.7028 9.32379 16.8253 9.0702 16.7945C8.98542 16.8371 8.79769 16.9306 8.71353 16.9472C8.33838 17.021 7.37564 17.0252 7.03111 16.9098C6.95717 16.8847 6.88382 16.8578 6.81115 16.8291C5.97949 16.8162 4.44993 16.1411 3.73707 15.7141C1.35246 14.2855 -0.0065518 11.6236 -0.0575054 8.86671C-0.061304 8.66155 0.0328097 8.52413 0.0619214 8.32949C0.21881 6.97699 0.64183 5.91053 1.37578 4.75689C1.16054 3.68551 0.703132 1.77037 1.43423 0.865463C2.63256 0.841421 3.38989 1.50354 4.25852 2.22125C4.65201 2.07249 5.1642 1.82792 5.54576 1.71338C7.43943 1.15129 9.47034 1.29033 11.2711 2.10537C11.3652 2.14745 11.4575 2.19342 11.5478 2.24322Z" fill="#B6B5AE"/>
<path d="M14.3167 4.53333C14.4839 4.74701 14.6347 5.01624 14.7714 5.25455C15.6019 6.68335 15.9484 8.34757 15.7582 9.99397C15.7065 10.4489 15.5929 10.7864 15.481 11.2201C15.0821 12.7816 14.0934 14.1716 12.8503 15.1634C11.9873 15.8519 10.9824 16.3387 9.92423 16.6331C9.6789 16.7013 9.32379 16.8245 9.0702 16.7935C8.98542 16.8363 8.79769 16.9303 8.71353 16.9469C8.33838 17.0211 7.37564 17.0253 7.03111 16.9094C6.95717 16.8842 6.88382 16.8571 6.81115 16.8283C5.97949 16.8153 4.44993 16.1369 3.73707 15.7078C1.35246 14.2722 -0.0065518 11.5973 -0.0575054 8.82694C-0.061304 8.62078 0.0328097 8.48268 0.0619214 8.28709C0.21881 6.92799 0.64183 5.85631 1.37578 4.69704C1.47212 4.89521 1.62731 5.55851 1.70066 5.82035C1.80535 6.194 1.92294 6.57723 2.02989 6.9496C1.54308 7.97409 1.06259 9.35198 1.05892 10.5039C2.19949 10.3479 3.35462 10.5663 4.28089 11.2808C4.45847 11.4166 4.62322 11.5687 4.77301 11.7353C4.89263 11.4932 5.00135 11.2881 5.14209 11.0592C6.52992 8.80192 9.92027 8.76507 10.7941 11.5145C10.8179 11.5903 10.8401 11.6667 10.8605 11.7436C11.9214 10.8473 13.2904 10.4137 14.6669 10.538C14.6833 10.5401 14.6996 10.5423 14.716 10.5445C14.6646 10.2515 14.648 9.7651 14.5966 9.42833C14.4373 8.38485 14.1326 7.754 13.6764 6.84133C13.8897 6.30144 14.1794 5.10161 14.3167 4.53333Z" fill="#FEFEFE"/>
<path d="M14.3167 4.53333C14.4839 4.74701 14.6347 5.01624 14.7714 5.25455C15.6019 6.68335 15.9484 8.34757 15.7582 9.99397C15.7065 10.4489 15.5929 10.7864 15.481 11.2201C15.0821 12.7816 14.0934 14.1716 12.8503 15.1634C11.9873 15.8519 10.9824 16.3387 9.92423 16.6331C9.6789 16.7013 9.32379 16.8245 9.0702 16.7935C8.98542 16.8363 8.79769 16.9303 8.71353 16.9469C8.33838 17.0211 7.37564 17.0253 7.03111 16.9094C6.95717 16.8842 6.88382 16.8571 6.81115 16.8283C5.97949 16.8153 4.44993 16.1369 3.73707 15.7078C1.35246 14.2722 -0.0065518 11.5973 -0.0575054 8.82694C-0.061304 8.62078 0.0328097 8.48268 0.0619214 8.28709C0.21881 6.92799 0.64183 5.85631 1.37578 4.69704C1.47212 4.89521 1.62731 5.55851 1.70066 5.82035C1.80535 6.194 1.92294 6.57723 2.02989 6.9496C1.54308 7.97409 1.06259 9.35198 1.05892 10.5039C1.01275 11.536 1.39513 12.151 2.0648 12.9007C3.3168 14.3024 5.8188 15.7087 7.69898 15.8121C9.50642 15.9115 11.9009 14.7504 13.1928 13.5176C14.0053 12.7423 14.6689 11.8422 14.7159 10.6711C14.7175 10.6289 14.7176 10.5866 14.716 10.5445C14.6646 10.2515 14.648 9.7651 14.5966 9.42833C14.4373 8.38485 14.1326 7.754 13.6764 6.84133C13.8897 6.30144 14.1794 5.10161 14.3167 4.53333Z" fill="#787771"/>
<path d="M7.28411 10.4848C7.76997 10.4818 8.25587 10.4834 8.7417 10.4896C9.08339 10.7187 9.14303 11.0345 9.0099 11.4262C8.8727 11.8298 8.59702 11.9944 8.2343 12.1671C8.22016 12.6712 8.22488 12.5299 8.51335 12.9191C9.06774 12.9479 9.34709 12.8073 9.85911 12.8369C9.78816 13.1526 9.81987 13.1792 9.58413 13.3978C9.49167 13.4836 9.44111 13.7682 9.27104 13.8833C9.17458 13.7848 9.20677 13.2816 9.20727 13.1038L8.64395 13.1816C8.00818 13.2113 7.52877 13.2069 6.90501 13.1075C6.9117 13.3493 6.93983 13.6226 6.86544 13.848L6.82047 13.8662C6.65017 13.7115 6.45712 13.1145 6.17578 12.829C6.61981 12.8034 7.14738 12.9299 7.69845 12.9226C7.77297 12.8044 7.87764 12.6833 7.96717 12.5739L7.95742 12.1572C7.29436 11.8307 6.84986 11.6069 7.02387 10.7235C7.04813 10.6004 7.18143 10.5333 7.28411 10.4848Z" fill="#787771"/>
<path d="M7.30908 13.333C7.67184 13.2937 8.20398 13.3388 8.58032 13.3309C8.6696 13.329 8.68289 13.3641 8.72575 13.4297C8.69362 13.5601 8.71909 13.5129 8.61297 13.6025C8.4709 13.6161 8.5193 13.6197 8.38284 13.5205C8.27346 13.6022 8.15433 13.7667 8.06216 13.8833C7.61085 13.1165 7.82187 13.6929 7.43091 13.5766C7.3479 13.4866 7.34426 13.4632 7.30908 13.333Z" fill="#787771"/>
<path d="M4.19238 2.28022C4.59004 2.12863 5.10767 1.87942 5.49328 1.76271C7.40705 1.18995 9.45952 1.33162 11.2794 2.16213C11.3745 2.20501 11.4678 2.25186 11.559 2.3026C11.1178 2.79458 10.8134 3.1477 10.4248 3.68332C8.9729 3.06946 6.83843 3.144 5.35306 3.67465C5.18577 3.46486 4.23047 2.36359 4.19238 2.28022Z" fill="#787771"/>
<path d="M1.88972 1.98334C3.25621 2.3373 3.80098 3.05455 4.75924 3.83239C4.50145 3.99909 4.23815 4.14978 3.98478 4.31245C3.2217 4.92581 2.9448 5.15854 2.39054 5.95C1.95192 4.89651 1.54515 3.65559 1.66328 2.51919C1.73389 2.35111 1.81354 2.14567 1.88972 1.98334Z" fill="#94938D"/>
<path d="M10.9922 3.78808C11.3731 3.45299 13.0102 1.76651 13.5993 2.00665C13.7353 2.12059 13.7634 2.30424 13.7979 2.46914C13.9311 3.59896 13.5619 4.90033 13.1316 5.95C12.8682 5.30704 12.2117 4.7291 11.6974 4.27365C11.4684 4.10698 11.2303 3.96453 10.9922 3.78808Z" fill="#94938D"/>
<path d="M3.73193 7.93353C4.37084 7.92024 5.38025 8.54889 5.9163 8.86218C6.13346 8.98911 6.62193 9.34918 6.40412 9.61223C5.62897 9.73287 4.1789 9.32089 3.63602 8.76094C3.62043 8.41532 3.60383 8.26717 3.73193 7.93353Z" fill="#787771"/>
<path d="M11.8704 7.93491C11.9548 7.93111 11.9577 7.93047 12.0265 7.97642C12.1634 8.17833 12.1204 8.50966 12.1153 8.76333C11.6031 9.35569 10.5781 9.57717 9.84095 9.63332C9.69431 9.6131 9.6409 9.62519 9.57568 9.48172C9.61576 8.92832 11.3704 8.05127 11.8704 7.93491Z" fill="#787771"/>
<path d="M4.88982 6.24212C4.91255 6.23927 4.93237 6.23715 4.95544 6.2357C5.2093 6.21832 5.45974 6.29734 5.64758 6.45406C5.88676 6.65189 6.00108 6.9979 5.75476 7.23493C5.60688 7.37718 5.50139 7.36268 5.29716 7.36586C5.0894 7.36601 4.73607 7.37864 4.56237 7.29851C3.81792 6.95516 4.33769 6.41264 4.88982 6.24212Z" fill="#FEFEFE"/>
<path d="M10.843 6.23623C11.3262 6.20624 11.6682 6.40967 11.8426 6.82005C11.7247 7.25268 11.7339 7.3543 11.2129 7.36659C11.0088 7.36534 10.6552 7.37844 10.4857 7.29444C9.77108 6.94032 10.3127 6.38908 10.843 6.23623Z" fill="#FEFEFE"/>
<path d="M46.4657 4.49362L48.7614 4.49698C48.5197 5.28434 48.1961 7.35876 48.013 8.27854L48.06 8.32243C48.9226 7.43968 49.9496 7.24169 51.1546 7.48324C53.3665 7.92665 53.6766 10.7362 53.2311 12.5601C52.881 13.9932 52.1886 15.0088 50.9244 15.8006C50.3764 16.3517 48.6074 16.4121 47.9027 16.1212C47.0485 15.7686 46.8241 15.528 46.4264 14.7409C46.3335 15.1013 46.2394 15.6692 46.162 16.0503C45.4561 16.0912 44.7353 16.04 44.0229 16.0948C44.3395 14.9637 44.5394 13.6112 44.7843 12.4432C45.333 9.82611 45.9545 7.11037 46.4657 4.49362ZM49.0825 14.5231C49.8639 14.1849 50.4673 13.6336 50.7342 12.8179C51.1475 11.555 51.4099 9.83934 50.0083 9.14903C49.7104 9.15 49.3649 9.14212 49.0716 9.15413C48.3192 9.40923 47.8395 9.81791 47.4901 10.5555C46.7635 12.0915 46.5592 14.8774 49.0825 14.5231Z" fill="#787771"/>
<path d="M25.5447 4.13352C25.5892 4.12661 25.6342 4.1221 25.6792 4.11997C25.893 4.10867 26.257 4.18508 26.4808 4.21225C28.7049 4.48258 29.8944 5.66882 29.9572 7.93238C29.3098 7.94432 28.6324 7.96555 27.986 7.93548C27.9426 7.93348 27.6541 7.88482 27.6503 7.87307C27.5604 7.59255 27.3792 6.92702 27.1876 6.72813C26.8022 6.3521 26.2702 6.2884 25.7892 6.22419C24.9271 6.10913 23.4829 6.49458 23.4904 7.58242C23.4998 8.95426 26.0334 9.07629 26.9895 9.45594C27.5889 9.69394 28.176 9.98859 28.6156 10.4705C29.2527 11.1704 29.3847 11.9548 29.3467 12.8628C29.3103 13.7354 28.8135 14.6701 28.1476 15.2225C26.9444 16.2204 25.3613 16.4659 23.8557 16.3481C21.6672 16.1074 20.262 15.3677 19.8611 13.0158C19.8193 12.7706 19.7606 12.4414 19.9147 12.2287C20.1464 12.1566 21.8665 12.2021 22.2482 12.206C22.3355 14.3395 23.5064 14.3311 25.3377 14.2587C26.1431 14.2268 27.0669 13.3883 26.9178 12.586C26.7121 11.4787 24.8093 11.2472 23.9405 10.9385C22.7178 10.5271 21.3137 9.833 21.1148 8.39689C20.9761 7.39566 21.1024 6.64269 21.7048 5.82641C22.6704 4.51813 24.0984 4.34699 25.5447 4.13352Z" fill="#787771"/>
<path d="M58.5478 7.42509C58.5562 7.42309 58.5645 7.42109 58.5729 7.41909C59.8391 7.30422 62.1065 7.58261 62.3869 9.13321C62.7576 11.1852 61.1208 14.0628 61.4605 16.0293L61.4728 16.0993L59.1738 16.0945C59.177 15.8268 59.1918 15.5428 59.2009 15.2736C57.9585 16.5001 55.2418 16.802 54.227 15.1405C54.2045 15.0925 54.1832 15.0442 54.1619 14.9955C53.9105 14.4053 53.9066 13.6265 54.1452 13.0332C54.9098 11.133 57.103 11.2368 58.8218 11.0718C59.6148 10.9956 61.0163 10.4156 60.0196 9.40173C59.5335 8.9078 58.364 8.91425 57.809 9.26944C57.4305 9.51157 57.299 9.70781 57.1907 10.1581C56.7871 10.2275 55.4262 10.1943 54.9497 10.1927C55.6254 8.16928 56.4609 7.65811 58.5478 7.42509ZM56.5808 12.8975C56.2398 13.4437 55.9774 14.0307 56.5911 14.5191C58.4898 15.3382 59.451 13.9559 59.7766 12.2687L59.7192 12.2047L59.6805 12.2057C58.9346 12.6424 57.885 12.2609 56.5808 12.8975Z" fill="#787771"/>
<path d="M32.4244 4.49417L34.7273 4.49501C34.4736 5.81839 34.2045 7.13867 33.9201 8.45572C34.0779 8.46237 34.4771 8.00876 34.7407 7.86337C35.7171 7.31123 36.8584 7.3513 37.9164 7.59627C38.5243 7.64002 39.2644 9.17971 39.1465 9.6419C38.6313 11.6489 38.4102 14.1042 37.7874 16.0517C37.4844 16.1629 35.9344 16.1069 35.5092 16.1009C35.7118 14.7662 36.0555 13.526 36.3139 12.224C36.4609 11.5781 36.7321 10.6464 36.6496 10.0139C36.5993 9.63061 36.3818 9.50219 36.0884 9.29394C33.5291 8.87196 33.3237 11.4706 32.9613 13.2518C32.7618 14.2319 32.4735 15.0822 32.3177 16.0976C31.8724 16.1041 30.321 16.1838 30.0133 16.0063C29.9747 15.7401 30.1719 15.6009 30.2292 15.3431C30.4891 14.1721 30.6342 12.9695 30.8815 11.7945C31.393 9.36415 31.982 6.93758 32.4244 4.49417Z" fill="#787771"/>
<path d="M78.8255 7.42036C79.1046 7.37757 79.7796 7.43714 80.0607 7.49689C80.5081 7.58988 80.8982 7.86144 81.1406 8.24877C81.7272 9.19211 81.4423 10.3461 81.2643 11.3648C80.9871 12.9562 80.6171 14.5292 80.2406 16.0993L77.9932 16.0973C78.2059 14.4559 79.0937 11.3314 79.1311 9.89397C78.244 8.6288 76.9681 9.30788 76.2151 10.3269C75.5846 11.5965 75.0746 14.5685 74.7626 16.1C74.2939 16.0969 72.8292 16.1826 72.4888 16.0129C72.5984 15.2869 72.8479 14.4321 72.9839 13.681C73.3565 11.6244 73.7756 9.61764 74.2539 7.58337L76.4362 7.58659L76.159 8.79155C77.1976 7.73341 77.3807 7.63344 78.8255 7.42036Z" fill="#787771"/>
<path d="M86.4799 7.58452C86.0505 9.32233 85.6714 11.722 85.2723 13.5136C85.0731 14.4084 87.1104 14.8218 87.8879 13.8066C88.9838 12.3755 88.9406 10.5266 89.3971 8.82381C89.4828 8.50076 89.528 7.87014 89.7181 7.63653C90.0805 7.55445 91.4833 7.56652 91.8708 7.61466C91.9636 7.80968 91.4118 10.1452 91.335 10.546C91.1816 11.9555 90.4963 14.634 90.1836 16.0963L88.0207 16.1025C88.0935 15.6189 88.1303 15.3442 88.2798 14.8767C87.3502 15.9137 86.0595 16.4904 84.6792 16.2228C83.9823 16.0876 83.4298 15.8543 83.1281 15.1734C82.7084 14.2271 83.014 13.1011 83.1938 12.1418C83.4814 10.6107 83.8534 9.1033 84.1635 7.58149L86.4799 7.58452Z" fill="#787771"/>
<path d="M70.2476 4.48575C70.9703 4.52679 72.0379 4.49762 72.7851 4.49995C72.5247 5.4409 72.3345 6.76008 72.1179 7.73808C71.7014 9.62386 71.2669 11.488 70.9561 13.395C70.813 14.2734 70.4584 15.1806 70.3972 16.0959C69.621 16.1281 68.6011 16.0975 67.8062 16.0977C68.0498 15.0613 68.2155 13.9257 68.4489 12.8776C68.808 11.2615 69.1561 9.63432 69.5075 8.01744C69.7196 7.0439 69.8866 5.36346 70.2476 4.48575Z" fill="#787771"/>
<path d="M43.9492 7.65195C43.4612 9.67641 43.1949 11.7576 42.6444 13.7761C42.4458 14.5039 42.344 15.3101 42.1647 16.0494L42.0687 16.104L39.769 16.0972C40.0095 15.591 40.3235 13.8667 40.464 13.2424C40.8405 11.5772 41.1803 9.2845 41.6683 7.67653C42.393 7.64362 43.2169 7.65685 43.9492 7.65195Z" fill="#787771"/>
<path d="M44.6505 4.49505C44.5371 4.94981 44.2321 5.9846 44.3424 6.39354C44.0394 6.4533 42.2884 6.4353 41.8545 6.4353C41.9873 5.78061 42.1472 5.13179 42.3348 4.49072C43.0852 4.50744 43.8956 4.49382 44.6505 4.49505Z" fill="#787771"/>
</g>
<defs>
<clipPath id="clip0_10_324">
<rect width="91.8" height="17" fill="white"/>
</clipPath>
</defs>
</svg>
